<?xml version="1.0" encoding="UTF-8"?>
<svg version="1.1" xmlns="http://www.w3.org/2000/svg" width="76" height="76">
<path d="M0 0 C2.625 0.5625 2.625 0.5625 5 2 C6.66000006 2.68309737 8.32595884 3.35207377 10 4 C10.62767818 14.11259292 10.62767818 14.11259292 8.1875 17.5625 C7.465625 18.036875 6.74375 18.51125 6 19 C5.01 19.66 4.02 20.32 3 21 C2.41312216 24.34613512 2.41312216 24.34613512 2.3125 28.125 C2.24675781 29.40632813 2.18101563 30.68765625 2.11328125 32.0078125 C2.07589844 32.99523438 2.03851563 33.98265625 2 35 C3.32 35.33 4.64 35.66 6 36 C5.125 40.875 5.125 40.875 4 42 C1.26105915 42.08858646 -1.4525327 42.11523479 -4.19140625 42.09765625 C-5.01124496 42.0962413 -5.83108368 42.09482635 -6.67576599 42.09336853 C-9.30471382 42.08775289 -11.93357773 42.07519779 -14.5625 42.0625 C-16.34049357 42.05748701 -18.11848846 42.05292376 -19.89648438 42.04882812 C-24.26435545 42.03777839 -28.63216348 42.02050331 -33 42 C-33.33 42.66 -33.66 43.32 -34 44 C-34 43.34 -34 42.68 -34 42 C-37.96 42 -41.92 42 -46 42 C-46.33 40.68 -46.66 39.36 -47 38 C-46.34 37.01 -45.68 36.02 -45 35 C-44.01 35 -43.02 35 -42 35 C-42.12568359 34.05253906 -42.12568359 34.05253906 -42.25390625 33.0859375 C-44.46153846 13.69230769 -44.46153846 13.69230769 -40 7 C-37.53983881 6.65206755 -35.3011965 6.49035361 -32.83203125 6.4453125 C-31.36651848 6.38717013 -29.90102416 6.32856121 -28.43554688 6.26953125 C-26.12959643 6.19368567 -23.82379359 6.12528591 -21.51733398 6.06689453 C-9.80383259 5.90156907 -9.80383259 5.90156907 0 0 Z M-1 3 C-1.33 4.32 -1.66 5.64 -2 7 C-0.15274948 7.69159401 -0.15274948 7.69159401 2 8 C2.99 7.34 3.98 6.68 5 6 C3.68798827 4.43750191 3.68798827 4.43750191 2 3 C1.01 3 0.02 3 -1 3 Z M-4 5 C-3 7 -3 7 -3 7 Z M-40 10 C-40.08737645 11.85369611 -40.10698153 13.71067541 -40.09765625 15.56640625 C-40.09443359 16.69111328 -40.09121094 17.81582031 -40.08789062 18.97460938 C-40.07951172 20.15861328 -40.07113281 21.34261719 -40.0625 22.5625 C-40.05798828 23.75037109 -40.05347656 24.93824219 -40.04882812 26.16210938 C-40.03699675 29.10812226 -40.02051287 32.05403681 -40 35 C-38.85660156 35.06058594 -37.71320312 35.12117188 -36.53515625 35.18359375 C-35.04425695 35.26798428 -33.55337225 35.35263302 -32.0625 35.4375 C-31.30775391 35.47681641 -30.55300781 35.51613281 -29.77539062 35.55664062 C-24.11328125 35.88671875 -24.11328125 35.88671875 -23 37 C-20 37.16666667 -20 37.16666667 -17 37 C-16.67 36.67 -16.34 36.34 -16 36 C-13.30764224 35.76321284 -10.63501844 35.57801975 -7.9375 35.4375 C-7.17888672 35.39431641 -6.42027344 35.35113281 -5.63867188 35.30664062 C-3.75934562 35.20026367 -1.87969756 35.09960066 0 35 C1.04294368 26.74043996 1.04294368 26.74043996 -1.265625 19.1796875 C-3.45202384 17.74685331 -5.37423285 17 -8 17 C-7.7215625 15.8553125 -7.7215625 15.8553125 -7.4375 14.6875 C-6.77180827 11.91032625 -6.77180827 11.91032625 -8 9 C-12.39656173 8.97534496 -16.7930872 8.95716158 -21.18969727 8.94506836 C-22.68644918 8.94002879 -24.18319616 8.93319713 -25.67993164 8.92456055 C-27.82699807 8.91247841 -29.97399962 8.90676809 -32.12109375 8.90234375 C-33.4145874 8.89710693 -34.70808105 8.89187012 -36.04077148 8.88647461 C-38.88652404 8.66003068 -38.88652404 8.66003068 -40 10 Z M0 17 C1 19 1 19 1 19 Z M-43 38 C-43 38.66 -43 39.32 -43 40 C-36.4 40 -29.8 40 -23 40 C-24.75509765 37.8334403 -24.75509765 37.8334403 -26.87939453 37.77294922 C-27.99483643 37.78865967 -27.99483643 37.78865967 -29.1328125 37.8046875 C-29.93847656 37.81113281 -30.74414062 37.81757812 -31.57421875 37.82421875 C-32.83685547 37.84935547 -32.83685547 37.84935547 -34.125 37.875 C-34.97449219 37.88402344 -35.82398438 37.89304688 -36.69921875 37.90234375 C-38.79959884 37.92594353 -40.89983444 37.96181517 -43 38 Z M-18 40 C-11.07 40 -4.14 40 3 40 C3 39.34 3 38.68 3 38 C0.06225537 37.94609643 -2.87450232 37.9063745 -5.8125 37.875 C-6.64587891 37.85824219 -7.47925781 37.84148438 -8.33789062 37.82421875 C-9.54155273 37.81455078 -9.54155273 37.81455078 -10.76953125 37.8046875 C-11.50792236 37.79421387 -12.24631348 37.78374023 -13.00708008 37.77294922 C-15.31890676 37.88258521 -15.31890676 37.88258521 -18 40 Z " fill="#5E5D59" transform="translate(53,12)"/>
<path d="M0 0 C2.75 0.375 2.75 0.375 5 2 C7.66653137 5.58602494 8 7.62297831 8 12 C2.87693441 16.07516581 2.87693441 16.07516581 -0.1875 15.8125 C-0.785625 15.544375 -1.38375 15.27625 -2 15 C-2.99 14.67 -3.98 14.34 -5 14 C-5 13.34 -5 12.68 -5 12 C-5.99 12 -6.98 12 -8 12 C-8 11.01 -8 10.02 -8 9 C-8.81339844 9.0721875 -9.62679687 9.144375 -10.46484375 9.21875 C-20.01783413 9.99244551 -29.41659888 10.07855247 -39 10 C-39.33 18.25 -39.66 26.5 -40 35 C-34.72 35 -29.44 35 -24 35 C-24 35.66 -24 36.32 -24 37 C-30.6 37 -37.2 37 -44 37 C-43.67 38.32 -43.34 39.64 -43 41 C-43.66 41 -44.32 41 -45 41 C-45 39.02 -45 37.04 -45 35 C-44.01 35 -43.02 35 -42 35 C-42.08378906 34.36835937 -42.16757812 33.73671875 -42.25390625 33.0859375 C-44.46153846 13.69230769 -44.46153846 13.69230769 -40 7 C-37.53983881 6.65206755 -35.3011965 6.49035361 -32.83203125 6.4453125 C-31.36651848 6.38717013 -29.90102416 6.32856121 -28.43554688 6.26953125 C-26.12959643 6.19368567 -23.82379359 6.12528591 -21.51733398 6.06689453 C-9.80178409 5.90416458 -9.80178409 5.90416458 0 0 Z M-1 3 C-1.33 4.32 -1.66 5.64 -2 7 C-0.15274948 7.69159401 -0.15274948 7.69159401 2 8 C2.99 7.34 3.98 6.68 5 6 C3.68798827 4.43750191 3.68798827 4.43750191 2 3 C1.01 3 0.02 3 -1 3 Z M-4 5 C-3 7 -3 7 -3 7 Z " fill="#82817F" transform="translate(53,12)"/>
<path d="M0 0 C2.55395487 -0.26711404 4.86274374 -0.34849029 7.4140625 -0.29296875 C8.50852188 -0.28660149 8.50852188 -0.28660149 9.62509155 -0.28010559 C11.95876759 -0.26329353 14.2915844 -0.22563868 16.625 -0.1875 C18.20571671 -0.17245634 19.78644693 -0.15876738 21.3671875 -0.14648438 C25.24512344 -0.11338201 29.12241598 -0.06158404 33 0 C33 0.33 33 0.66 33 1 C31.59923218 1.03758423 31.59923218 1.03758423 30.17016602 1.07592773 C26.71674811 1.17086928 23.2635104 1.27011258 19.81030273 1.37231445 C18.31360731 1.41571813 16.81686061 1.45738913 15.32006836 1.49731445 C13.17285688 1.55488616 11.02590479 1.61861716 8.87890625 1.68359375 C6.93866577 1.73858032 6.93866577 1.73858032 4.95922852 1.79467773 C2.11444992 1.6667278 2.11444992 1.6667278 1 3 C0.84213692 4.85174706 0.74892644 6.7090911 0.68359375 8.56640625 C0.64169922 9.69111328 0.59980469 10.81582031 0.55664062 11.97460938 C0.51732422 13.15861328 0.47800781 14.34261719 0.4375 15.5625 C0.39431641 16.75037109 0.35113281 17.93824219 0.30664062 19.16210938 C0.20016547 22.10792197 0.09954319 25.05394502 0 28 C5.28 28 10.56 28 16 28 C16 28.66 16 29.32 16 30 C9.4 30 2.8 30 -4 30 C-3.67 31.32 -3.34 32.64 -3 34 C-3.66 34 -4.32 34 -5 34 C-5 32.02 -5 30.04 -5 28 C-4.01 28 -3.02 28 -2 28 C-2.08378906 27.36835937 -2.16757813 26.73671875 -2.25390625 26.0859375 C-4.46153846 6.69230769 -4.46153846 6.69230769 0 0 Z " fill="#666663" transform="translate(13,19)"/>
<path d="M0 0 C0.99 0 1.98 0 3 0 C3.62767818 10.11259292 3.62767818 10.11259292 1.1875 13.5625 C0.465625 14.036875 -0.25625 14.51125 -1 15 C-1.99 15.66 -2.98 16.32 -4 17 C-4.58687784 20.34613512 -4.58687784 20.34613512 -4.6875 24.125 C-4.75324219 25.40632813 -4.81898437 26.68765625 -4.88671875 28.0078125 C-4.92410156 28.99523437 -4.96148437 29.98265625 -5 31 C-4.01 31.33 -3.02 31.66 -2 32 C-3.32 32 -4.64 32 -6 32 C-6.33 27.05 -6.66 22.1 -7 17 C-9.475 16.01 -9.475 16.01 -12 15 C-12.99 14.34 -13.98 13.68 -15 13 C-14.67 11.35 -14.34 9.7 -14 8 C-13.34 8 -12.68 8 -12 8 C-12 8.66 -12 9.32 -12 10 C-7.14923848 11.20331407 -7.14923848 11.20331407 -2.6875 9.5625 C-2.130625 9.046875 -1.57375 8.53125 -1 8 C-0.34 8 0.32 8 1 8 C0.649375 7.4225 0.29875 6.845 -0.0625 6.25 C-1.14917407 3.64198224 -0.93065133 2.60582371 0 0 Z M-7 13 C-6 15 -6 15 -6 15 Z " fill="#757473" transform="translate(60,16)"/>
<path d="M0 0 C0.33 0 0.66 0 1 0 C1 1.65 1 3.3 1 5 C1.52464844 4.855625 2.04929687 4.71125 2.58984375 4.5625 C17.50305085 0.98928565 33.84083398 3.16067642 49 4 C49 4.33 49 4.66 49 5 C37.12 5 25.24 5 13 5 C12.67 5.99 12.34 6.98 12 8 C12 7.34 12 6.68 12 6 C8.04 6 4.08 6 0 6 C-1 2 -1 2 0 0 Z " fill="#82817F" transform="translate(7,48)"/>
<path d="M0 0 C0.66 0 1.32 0 2 0 C2.96398647 2.8919594 3 4.9994375 3 8 C-2.14209827 12.09030544 -2.14209827 12.09030544 -5.375 11.75 C-5.91125 11.5025 -6.4475 11.255 -7 11 C-5.73882275 7.11137013 -4.54735833 5.10624401 -1 3 C-0.34 3 0.32 3 1 3 C0.67 2.01 0.34 1.02 0 0 Z " fill="#282828" transform="translate(58,16)"/>
<path d="M0 0 C2.25 1.5 2.25 1.5 3.0625 4.125 C3.124375 4.90875 3.18625 5.6925 3.25 6.5 C2.3528125 5.7575 2.3528125 5.7575 1.4375 5 C-0.72029994 3.21723582 -0.72029994 3.21723582 -3.75 3.5 C-4.08 4.49 -4.41 5.48 -4.75 6.5 C-2.77 6.5 -0.79 6.5 1.25 6.5 C0.26 7.49 -0.73 8.48 -1.75 9.5 C-5.215 7.52 -5.215 7.52 -8.75 5.5 C-7.75 2.5 -7.75 2.5 -5.5 0.6875 C-2.75 -0.5 -2.75 -0.5 0 0 Z " fill="#969594" transform="translate(55.75,12.5)"/>
<path d="M0 0 C1.39120471 0.00015906 2.78241534 0.00585033 4.17358398 0.01586914 C4.90463852 0.01728409 5.63569305 0.01869904 6.38890076 0.02015686 C8.73253406 0.02577131 11.07607313 0.03832617 13.41967773 0.05102539 C15.00496282 0.05603853 16.59024939 0.06060176 18.17553711 0.06469727 C22.06945383 0.07574542 25.96329979 0.09301967 29.85717773 0.11352539 C29.85717773 0.44352539 29.85717773 0.77352539 29.85717773 1.11352539 C28.45640991 1.15110962 28.45640991 1.15110962 27.02734375 1.18945312 C23.57392584 1.28439467 20.12068814 1.38363797 16.66748047 1.48583984 C15.17078504 1.52924352 13.67403835 1.57091452 12.17724609 1.61083984 C10.03003461 1.66841155 7.88308252 1.73214255 5.73608398 1.79711914 C3.79584351 1.85210571 3.79584351 1.85210571 1.81640625 1.90820312 C-1.02837235 1.78025319 -1.02837235 1.78025319 -2.14282227 3.11352539 C-2.37357309 4.46099623 -2.55435289 5.81730104 -2.70532227 7.17602539 C-2.84969727 8.47540039 -2.99407227 9.77477539 -3.14282227 11.11352539 C-3.47282227 11.11352539 -3.80282227 11.11352539 -4.14282227 11.11352539 C-4.16970377 9.46777973 -4.1891635 7.82191126 -4.20532227 6.17602539 C-4.21692383 5.25950195 -4.22852539 4.34297852 -4.24047852 3.39868164 C-4.08798 -0.16978374 -3.65356679 0.13197456 0 0 Z " fill="#2B2A28" transform="translate(16.142822265625,18.886474609375)"/>
<path d="M0 0 C0 0.33 0 0.66 0 1 C-5.4756468 1.9126078 -10.83598861 2.11016336 -16.375 2.125 C-17.08914062 2.12951172 -17.80328125 2.13402344 -18.5390625 2.13867188 C-23.7525042 2.1237479 -23.7525042 2.1237479 -26 1 C-26.33 1.66 -26.66 2.32 -27 3 C-27 2.01 -27 1.02 -27 0 C-23.81310715 -0.19892707 -20.62548809 -0.38204784 -17.4375 -0.5625 C-16.54224609 -0.61857422 -15.64699219 -0.67464844 -14.72460938 -0.73242188 C-9.63581532 -1.01202594 -5.01473048 -0.92865379 0 0 Z " fill="#AEADAB" transform="translate(36,49)"/>
<path d="M0 0 C0.33 0.99 0.66 1.98 1 3 C-3.29 3 -7.58 3 -12 3 C-12 2.34 -12 1.68 -12 1 C-6.06 0.505 -6.06 0.505 0 0 Z " fill="#72706E" transform="translate(38,34)"/>
<path d="M0 0 C4.29 0 8.58 0 13 0 C13 0.66 13 1.32 13 2 C8.71 2 4.42 2 0 2 C0 1.34 0 0.68 0 0 Z " fill="#605F5D" transform="translate(17,39)"/>
<path d="M0 0 C1.3921875 0.2784375 1.3921875 0.2784375 2.8125 0.5625 C6.01343771 1.24123881 6.01343771 1.24123881 9 0 C9 0.99 9 1.98 9 3 C7.375 4.1875 7.375 4.1875 5 5 C1.75 3.625 1.75 3.625 -1 2 C-0.67 1.34 -0.34 0.68 0 0 Z " fill="#D6D6D6" transform="translate(49,26)"/>
<path d="M0 0 C0.99 0 1.98 0 3 0 C3 3.63 3 7.26 3 11 C2.01 10.67 1.02 10.34 0 10 C-0.74926071 6.33694766 -1.2380014 3.57644848 0 0 Z " fill="#D3D3D3" transform="translate(60,16)"/>
<path d="M0 0 C0.66 0 1.32 0 2 0 C2.0825 0.598125 2.165 1.19625 2.25 1.8125 C3.20455872 4.5966296 4.57132271 5.43311142 7 7 C6.01 7.33 5.02 7.66 4 8 C1.3125 6.5625 1.3125 6.5625 -1 5 C-0.67 3.35 -0.34 1.7 0 0 Z " fill="#7F7F7E" transform="translate(46,24)"/>
<path d="M0 0 C0 0.66 0 1.32 0 2 C-2.64 2 -5.28 2 -8 2 C-8 1.34 -8 0.68 -8 0 C-4.94736336 -0.98120464 -3.05263664 -0.98120464 0 0 Z " fill="#6A6967" transform="translate(25,35)"/>
<path d="M0 0 C0.66 0 1.32 0 2 0 C2.33 0.99 2.66 1.98 3 3 C-1.75 7 -1.75 7 -4 7 C-4 6.34 -4 5.68 -4 5 C-2.35 4.34 -0.7 3.68 1 3 C0.67 2.01 0.34 1.02 0 0 Z " fill="#363636" transform="translate(58,16)"/>
<path d="M0 0 C1.32 1.32 2.64 2.64 4 4 C2.68 4.99 1.36 5.98 0 7 C0 4.69 0 2.38 0 0 Z " fill="#6A6A67" transform="translate(17,27)"/>
<path d="M0 0 C0.99 0.99 1.98 1.98 3 3 C1.35 3.33 -0.3 3.66 -2 4 C-2.33 3.01 -2.66 2.02 -3 1 C-2.01 0.67 -1.02 0.34 0 0 Z " fill="#848482" transform="translate(24,30)"/>
<path d="" fill="#FFFFFF" transform="translate(0,0)"/>
<path d="" fill="#FFFFFF" transform="translate(0,0)"/>
<path d="" fill="#FFFFFF" transform="translate(0,0)"/>
<path d="" fill="#FFFFFF" transform="translate(0,0)"/>
<path d="" fill="#FFFFFF" transform="translate(0,0)"/>
<path d="" fill="#FFFFFF" transform="translate(0,0)"/>
<path d="" fill="#FFFFFF" transform="translate(0,0)"/>
<path d="" fill="#FFFFFF" transform="translate(0,0)"/>
<path d="" fill="#FFFFFF" transform="translate(0,0)"/>
<path d="" fill="#FFFFFF" transform="translate(0,0)"/>
<path d="" fill="#FFFFFF" transform="translate(0,0)"/>
<path d="" fill="#FFFFFF" transform="translate(0,0)"/>
<path d="" fill="#FFFFFF" transform="translate(0,0)"/>
<path d="" fill="#FFFFFF" transform="translate(0,0)"/>
<path d="" fill="#FFFFFF" transform="translate(0,0)"/>
<path d="" fill="#FFFFFF" transform="translate(0,0)"/>
<path d="" fill="#FFFFFF" transform="translate(0,0)"/>
<path d="" fill="#FFFFFF" transform="translate(0,0)"/>
<path d="" fill="#FFFFFF" transform="translate(0,0)"/>
<path d="" fill="#FFFFFF" transform="translate(0,0)"/>
<path d="" fill="#FFFFFF" transform="translate(0,0)"/>
<path d="" fill="#FFFFFF" transform="translate(0,0)"/>
<path d="" fill="#FFFFFF" transform="translate(0,0)"/>
<path d="" fill="#FFFFFF" transform="translate(0,0)"/>
<path d="" fill="#FFFFFF" transform="translate(0,0)"/>
<path d="" fill="#FFFFFF" transform="translate(0,0)"/>
<path d="" fill="#FFFFFF" transform="translate(0,0)"/>
<path d="" fill="#FFFFFF" transform="translate(0,0)"/>
<path d="" fill="#FFFFFF" transform="translate(0,0)"/>
<path d="" fill="#FFFFFF" transform="translate(0,0)"/>
<path d="" fill="#FFFFFF" transform="translate(0,0)"/>
<path d="" fill="#FFFFFF" transform="translate(0,0)"/>
<path d="" fill="#FFFFFF" transform="translate(0,0)"/>
<path d="" fill="#FFFFFF" transform="translate(0,0)"/>
<path d="" fill="#FFFFFF" transform="translate(0,0)"/>
<path d="" fill="#FFFFFF" transform="translate(0,0)"/>
<path d="" fill="#FFFFFF" transform="translate(0,0)"/>
<path d="" fill="#FFFFFF" transform="translate(0,0)"/>
<path d="" fill="#FFFFFF" transform="translate(0,0)"/>
<path d="" fill="#FFFFFF" transform="translate(0,0)"/>
<path d="" fill="#FFFFFF" transform="translate(0,0)"/>
<path d="" fill="#FFFFFF" transform="translate(0,0)"/>
<path d="" fill="#FFFFFE" transform="translate(0,0)"/>
<path d="" fill="#FFFFFF" transform="translate(0,0)"/>
<path d="" fill="#FFFFFF" transform="translate(0,0)"/>
<path d="" fill="#FFFFFF" transform="translate(0,0)"/>
<path d="" fill="#FFFFFF" transform="translate(0,0)"/>
<path d="" fill="#FFFFFF" transform="translate(0,0)"/>
<path d="" fill="#FFFFFF" transform="translate(0,0)"/>
<path d="" fill="#FFFFFF" transform="translate(0,0)"/>
<path d="" fill="#FFFFFF" transform="translate(0,0)"/>
<path d="" fill="#FFFFFF" transform="translate(0,0)"/>
<path d="" fill="#FFFFFF" transform="translate(0,0)"/>
<path d="" fill="#FFFFFF" transform="translate(0,0)"/>
<path d="" fill="#FFFFFF" transform="translate(0,0)"/>
<path d="" fill="#FFFFFF" transform="translate(0,0)"/>
<path d="" fill="#FFFFFF" transform="translate(0,0)"/>
<path d="" fill="#FFFFFF" transform="translate(0,0)"/>
</svg>
