<?xml version="1.0" encoding="UTF-8"?>
<svg version="1.1" xmlns="http://www.w3.org/2000/svg" width="85" height="84">
<path d="M0 0 C1.39583724 0.02057023 2.79254605 -0.00875806 4.1875 -0.0625 C12.08763881 -0.15476439 21.48781951 0.40521302 29 3 C30 5 30 5 29.5 7.9375 C27.80366299 11.40085473 26.51783749 12.04423646 23.01025391 13.42211914 C19.67365882 14.38127879 16.37173988 14.35456296 12.9375 14.25 C12.25623047 14.24484375 11.57496094 14.2396875 10.87304688 14.234375 C6.8186637 14.17205979 2.98580405 13.69628214 -1 13 C-7.69721035 12.58504316 -13.57827855 13.06136711 -20 15 C-21.38226016 12.23547967 -21.09525387 9.9538637 -21.0625 6.875 C-21.05347656 5.77929688 -21.04445313 4.68359375 -21.03515625 3.5546875 C-21.02355469 2.71164063 -21.01195312 1.86859375 -21 1 C-17.72913838 -0.63543081 -14.10046656 -0.42398873 -10.5 -0.625 C-9.71496094 -0.6765625 -8.92992187 -0.728125 -8.12109375 -0.78125 C-2.24757584 -1.12378792 -2.24757584 -1.12378792 0 0 Z M1 4 C-0.0761054 7.57535019 -0.0761054 7.57535019 1 11 C2.98 10.67 4.96 10.34 7 10 C8.33333333 7 8.33333333 7 7 4 C4.42525708 3.00332532 3.51072708 2.74463646 1 4 Z M10 4 C10.33 5.65 10.66 7.3 11 9 C12.32 9 13.64 9 15 9 C15.59070014 7.05396726 15.59070014 7.05396726 16 5 C14.93354885 3.70366379 14.93354885 3.70366379 12.4375 3.9375 C11.633125 3.958125 10.82875 3.97875 10 4 Z M-17 5 C-17 6.32 -17 7.64 -17 9 C-15.35 9 -13.7 9 -12 9 C-12 7.68 -12 6.36 -12 5 C-13.65 5 -15.3 5 -17 5 Z M-7 5 C-7.33 6.98 -7.66 8.96 -8 11 C-6.02 11 -4.04 11 -2 11 C-1.67 10.01 -1.34 9.02 -1 8 C-1.66 7.01 -2.32 6.02 -3 5 C-4.32 5 -5.64 5 -7 5 Z M20 5 C20 6.32 20 7.64 20 9 C21.32 9 22.64 9 24 9 C24 7.68 24 6.36 24 5 C22.68 5 21.36 5 20 5 Z " fill="#41403E" transform="translate(34,53)"/>
<path d="M0 0 C1.98 0 3.96 0 6 0 C6.45375 0.969375 6.9075 1.93875 7.375 2.9375 C8.65786221 6.07079582 8.65786221 6.07079582 11 7 C11 9.31 11 11.62 11 14 C9.68 14.33 8.36 14.66 7 15 C7.12375 16.794375 7.12375 16.794375 7.25 18.625 C7.2829135 23.24934637 5.84613746 25.44232818 3 29 C2.01 28.67 1.02 28.34 0 28 C0 27.01 0 26.02 0 25 C-0.66 25 -1.32 25 -2 25 C-2 21.7 -2 18.4 -2 15 C-2.99 14.67 -3.98 14.34 -5 14 C-4.34 11.69 -3.68 9.38 -3 7 C-2.34 7 -1.68 7 -1 7 C-0.67 4.69 -0.34 2.38 0 0 Z M-2 10 C-1 12 -1 12 -1 12 Z M2 15 C2 17.64 2 20.28 2 23 C2.33 23 2.66 23 3 23 C3 20.36 3 17.72 3 15 C2.67 15 2.34 15 2 15 Z " fill="#A9A8A6" transform="translate(51,21)"/>
<path d="M0 0 C6.69007182 0.52405563 13.3487487 1.10463925 20 2 C20 1.34 20 0.68 20 0 C21.65 0 23.3 0 25 0 C25.08226668 3.04386724 24.97608217 5.07175348 24 8 C23.93197033 9.72795352 23.91504355 11.45835365 23.9375 13.1875 C23.94652344 14.08855469 23.95554687 14.98960938 23.96484375 15.91796875 C23.97644531 16.60503906 23.98804687 17.29210937 24 18 C24.99 18 25.98 18 27 18 C27.04241723 20.33294775 27.04092937 22.66702567 27 25 C26 26 26 26 22.4375 26.0625 C21.303125 26.041875 20.16875 26.02125 19 26 C19 25.34 19 24.68 19 24 C14.71 23.67 10.42 23.34 6 23 C6 23.99 6 24.98 6 26 C4.02 25.67 2.04 25.34 0 25 C0 23.02 0 21.04 0 19 C0.66 19 1.32 19 2 19 C2 14.38 2 9.76 2 5 C1.34 5 0.68 5 0 5 C0 3.35 0 1.7 0 0 Z M6 3 C6 3.66 6 4.32 6 5 C5.34 5 4.68 5 4 5 C4 9.62 4 14.24 4 19 C4.66 19 5.32 19 6 19 C6 19.66 6 20.32 6 21 C10.62 21 15.24 21 20 21 C21.22826527 18.91614745 21.22826527 18.91614745 21 15.9375 C21 13 21 13 22 12 C22.04092937 9.66702567 22.04241723 7.33294775 22 5 C21.34 5 20.68 5 20 5 C20 4.34 20 3.68 20 3 C15.38 3 10.76 3 6 3 Z " fill="#8B8A87" transform="translate(16,24)"/>
<path d="M0 0 C3.63 0 7.26 0 11 0 C12 2 12 2 11.5 4.9375 C9.80366299 8.40085473 8.51783749 9.04423646 5.01025391 10.42211914 C1.67365882 11.38127879 -1.62826012 11.35456296 -5.0625 11.25 C-5.74376953 11.24484375 -6.42503906 11.2396875 -7.12695312 11.234375 C-11.17185647 11.1722055 -15.03073182 10.76784595 -19 10 C-19 9.67 -19 9.34 -19 9 C-12.73 8.67 -6.46 8.34 0 8 C0 5.36 0 2.72 0 0 Z M2 2 C2 3.32 2 4.64 2 6 C3.32 6 4.64 6 6 6 C6 4.68 6 3.36 6 2 C4.68 2 3.36 2 2 2 Z " fill="#CBCBC9" transform="translate(52,56)"/>
<path d="M0 0 C6.69007182 0.52405563 13.3487487 1.10463925 20 2 C20 1.34 20 0.68 20 0 C21.65 0 23.3 0 25 0 C25.042721 1.66611905 25.04063832 3.33382885 25 5 C24.67 5.33 24.34 5.66 24 6 C23.76518307 8.18292774 23.58636677 10.37203174 23.4375 12.5625 C23.35371094 13.76003906 23.26992188 14.95757812 23.18359375 16.19140625 C23.09271484 17.58166016 23.09271484 17.58166016 23 19 C22.67 19 22.34 19 22 19 C22 14.38 22 9.76 22 5 C21.34 5 20.68 5 20 5 C20 4.34 20 3.68 20 3 C15.38 3 10.76 3 6 3 C6 3.66 6 4.32 6 5 C5.01 5 4.02 5 3 5 C3 8.96 3 12.92 3 17 C2.67 17 2.34 17 2 17 C2 13.04 2 9.08 2 5 C1.34 5 0.68 5 0 5 C0 3.35 0 1.7 0 0 Z " fill="#403F3D" transform="translate(16,24)"/>
<path d="M0 0 C1.52013818 0.04597771 3.04214319 0.0380684 4.5625 0 C9.46281927 -0.0570634 14.1420292 0.37316506 19 1 C19 1.33 19 1.66 19 2 C6.46 2 -6.08 2 -19 2 C-19 5.3 -19 8.6 -19 12 C-16.69 12 -14.38 12 -12 12 C-14.91765 13.9451 -16.62537285 14.45276317 -20 15 C-21.38226016 12.23547967 -21.09525387 9.9538637 -21.0625 6.875 C-21.05347656 5.77929688 -21.04445313 4.68359375 -21.03515625 3.5546875 C-21.02355469 2.71164063 -21.01195312 1.86859375 -21 1 C-17.72913838 -0.63543081 -14.10046656 -0.42398873 -10.5 -0.625 C-9.71496094 -0.6765625 -8.92992187 -0.728125 -8.12109375 -0.78125 C-2.24757584 -1.12378792 -2.24757584 -1.12378792 0 0 Z " fill="#D2D1CE" transform="translate(34,53)"/>
<path d="M0 0 C5.94 0 11.88 0 18 0 C18 0.33 18 0.66 18 1 C15.36 1 12.72 1 10 1 C10 3.64 10 6.28 10 9 C12.31 9 14.62 9 17 9 C17 9.33 17 9.66 17 10 C11.39 10 5.78 10 0 10 C0 6.7 0 3.4 0 0 Z M2 3 C2 4.32 2 5.64 2 7 C3.65 7 5.3 7 7 7 C7 5.68 7 4.36 7 3 C5.35 3 3.7 3 2 3 Z " fill="#6F6F6C" transform="translate(15,55)"/>
<path d="M0 0 C3.63 0 7.26 0 11 0 C10.01 0.33 9.02 0.66 8 1 C8.11859375 1.58007812 8.2371875 2.16015625 8.359375 2.7578125 C9.54333986 9.93263957 9.54333986 9.93263957 7.0625 13.5625 C6.381875 14.366875 5.70125 15.17125 5 16 C4.01 15.67 3.02 15.34 2 15 C2 10.38 2 5.76 2 1 C1.34 0.67 0.68 0.34 0 0 Z M4 2 C4 4.64 4 7.28 4 10 C4.33 10 4.66 10 5 10 C5 7.36 5 4.72 5 2 C4.67 2 4.34 2 4 2 Z " fill="#545351" transform="translate(49,34)"/>
<path d="M0 0 C1.65 0 3.3 0 5 0 C6.4783226 2.95664519 6.06032783 5.74229737 6 9 C3.03 9 0.06 9 -3 9 C-3.33 10.32 -3.66 11.64 -4 13 C-4 11.35 -4 9.7 -4 8 C-3.01 7.67 -2.02 7.34 -1 7 C-0.67 4.69 -0.34 2.38 0 0 Z " fill="#2C2B29" transform="translate(51,21)"/>
<path d="M0 0 C0.33 0 0.66 0 1 0 C1 4.62 1 9.24 1 14 C1.66 14 2.32 14 3 14 C3 14.66 3 15.32 3 16 C4.98 16 6.96 16 9 16 C8.34 16.66 7.68 17.32 7 18 C5.68 18 4.36 18 3 18 C3 18.99 3 19.98 3 21 C1.02 20.67 -0.96 20.34 -3 20 C-3 18.02 -3 16.04 -3 14 C-2.34 14 -1.68 14 -1 14 C-0.67 9.38 -0.34 4.76 0 0 Z " fill="#7D7C7A" transform="translate(19,29)"/>
<path d="M0 0 C2.64 0 5.28 0 8 0 C8 2.64 8 5.28 8 8 C5.36 8 2.72 8 0 8 C0 5.36 0 2.72 0 0 Z M1 1 C1.33 2.65 1.66 4.3 2 6 C3.32 6 4.64 6 6 6 C6.59070014 4.05396726 6.59070014 4.05396726 7 2 C5.93354885 0.70366379 5.93354885 0.70366379 3.4375 0.9375 C2.633125 0.958125 1.82875 0.97875 1 1 Z " fill="#BBBAB9" transform="translate(43,56)"/>
<path d="M0 0 C1.65 0 3.3 0 5 0 C5 1.65 5 3.3 5 5 C4.34 5 3.68 5 3 5 C3 8.96 3 12.92 3 17 C2.67 17 2.34 17 2 17 C2 13.04 2 9.08 2 5 C1.34 5 0.68 5 0 5 C0 3.35 0 1.7 0 0 Z " fill="#282726" transform="translate(16,24)"/>
<path d="M0 0 C2.2477975 2.05233685 3.0022242 3.00667261 4 6 C4.66 6.33 5.32 6.66 6 7 C6 9.31 6 11.62 6 14 C4.68 14.33 3.36 14.66 2 15 C1.67 16.32 1.34 17.64 1 19 C1 17.35 1 15.7 1 14 C1.99 13.67 2.98 13.34 4 13 C4.33 11.35 4.66 9.7 5 8 C3.68 8 2.36 8 1 8 C0.67 5.36 0.34 2.72 0 0 Z " fill="#D7D6D4" transform="translate(56,21)"/>
<path d="M0 0 C0.66 0 1.32 0 2 0 C3.25664978 2.90600261 4 4.79604584 4 8 C3.34 8 2.68 8 2 8 C2 7.34 2 6.68 2 6 C1.01 6 0.02 6 -1 6 C-1 6.66 -1 7.32 -1 8 C-1.99 7.67 -2.98 7.34 -4 7 C-2.68 4.69 -1.36 2.38 0 0 Z " fill="#4F4D4C" transform="translate(28,32)"/>
<path d="M0 0 C1.32 0.33 2.64 0.66 4 1 C2.125 7.875 2.125 7.875 1 9 C-1.67058851 9.14115161 -4.32432238 9.04247107 -7 9 C-7 8.67 -7 8.34 -7 8 C-4.69 8 -2.38 8 0 8 C0 5.36 0 2.72 0 0 Z " fill="#7C7B7A" transform="translate(60,56)"/>
<path d="M0 0 C2.64 0 5.28 0 8 0 C8 1.65 8 3.3 8 5 C7.34 4.34 6.68 3.68 6 3 C3.93125966 2.3574765 3.93125966 2.3574765 2 2 C2.33 2.99 2.66 3.98 3 5 C2.34 5 1.68 5 1 5 C0.67 5.99 0.34 6.98 0 8 C0 5.36 0 2.72 0 0 Z " fill="#C7C5C3" transform="translate(25,56)"/>
<path d="M0 0 C0.99 0 1.98 0 3 0 C3 3.63 3 7.26 3 11 C2.01 11 1.02 11 0 11 C0 7.37 0 3.74 0 0 Z M1 1 C1 3.64 1 6.28 1 9 C1.33 9 1.66 9 2 9 C2 6.36 2 3.72 2 1 C1.67 1 1.34 1 1 1 Z " fill="#DFDEDC" transform="translate(52,35)"/>
<path d="M0 0 C1.32 0.66 2.64 1.32 4 2 C3.67 2.33 3.34 2.66 3 3 C2.76518307 5.18292774 2.58636677 7.37203174 2.4375 9.5625 C2.31181641 11.35880859 2.31181641 11.35880859 2.18359375 13.19140625 C2.12300781 14.11824219 2.06242187 15.04507813 2 16 C1.67 16 1.34 16 1 16 C1 11.38 1 6.76 1 2 C0.34 1.67 -0.32 1.34 -1 1 C-0.67 0.67 -0.34 0.34 0 0 Z " fill="#333230" transform="translate(37,27)"/>
<path d="M0 0 C1.65 0 3.3 0 5 0 C5 1.32 5 2.64 5 4 C3.35 4 1.7 4 0 4 C0 2.68 0 1.36 0 0 Z " fill="#242321" transform="translate(16,44)"/>
<path d="" fill="#FFFFFF" transform="translate(0,0)"/>
<path d="" fill="#FFFFFF" transform="translate(0,0)"/>
<path d="" fill="#FFFFFF" transform="translate(0,0)"/>
<path d="" fill="#FFFFFF" transform="translate(0,0)"/>
<path d="" fill="#00FFFF" transform="translate(0,0)"/>
<path d="" fill="#FFFFFF" transform="translate(0,0)"/>
<path d="" fill="#FFFFFF" transform="translate(0,0)"/>
<path d="" fill="#FFFFFF" transform="translate(0,0)"/>
<path d="" fill="#00FFFF" transform="translate(0,0)"/>
<path d="" fill="#FFFFFF" transform="translate(0,0)"/>
<path d="" fill="#FFFFFF" transform="translate(0,0)"/>
<path d="" fill="#FFFFFF" transform="translate(0,0)"/>
<path d="" fill="#FFFFFF" transform="translate(0,0)"/>
<path d="" fill="#FFFFFF" transform="translate(0,0)"/>
<path d="" fill="#FFFFFF" transform="translate(0,0)"/>
<path d="" fill="#FFFFFF" transform="translate(0,0)"/>
<path d="" fill="#FFFFFF" transform="translate(0,0)"/>
<path d="" fill="#FFFFFF" transform="translate(0,0)"/>
<path d="" fill="#FFFFFF" transform="translate(0,0)"/>
<path d="" fill="#FFFFFF" transform="translate(0,0)"/>
<path d="" fill="#FFFFFF" transform="translate(0,0)"/>
<path d="" fill="#FFFFFF" transform="translate(0,0)"/>
<path d="" fill="#FFFFFF" transform="translate(0,0)"/>
<path d="" fill="#FFFFFF" transform="translate(0,0)"/>
<path d="" fill="#FFFFFF" transform="translate(0,0)"/>
<path d="" fill="#FFFFFF" transform="translate(0,0)"/>
<path d="" fill="#FFFFFF" transform="translate(0,0)"/>
<path d="" fill="#FFFFFF" transform="translate(0,0)"/>
<path d="" fill="#FFFFFF" transform="translate(0,0)"/>
<path d="" fill="#FFFFFF" transform="translate(0,0)"/>
<path d="" fill="#FFFFFF" transform="translate(0,0)"/>
<path d="" fill="#FFFFFF" transform="translate(0,0)"/>
<path d="" fill="#FFFFFF" transform="translate(0,0)"/>
<path d="" fill="#FFFFFF" transform="translate(0,0)"/>
<path d="" fill="#FFFFFF" transform="translate(0,0)"/>
<path d="" fill="#FFFFFF" transform="translate(0,0)"/>
<path d="" fill="#FFFFFF" transform="translate(0,0)"/>
<path d="" fill="#FFFFFF" transform="translate(0,0)"/>
<path d="" fill="#FFFFFF" transform="translate(0,0)"/>
<path d="" fill="#FFFFFF" transform="translate(0,0)"/>
<path d="" fill="#FFFFFF" transform="translate(0,0)"/>
<path d="" fill="#FFFFFF" transform="translate(0,0)"/>
<path d="" fill="#FFFFFF" transform="translate(0,0)"/>
<path d="" fill="#FFFFFF" transform="translate(0,0)"/>
<path d="" fill="#FFFFFF" transform="translate(0,0)"/>
<path d="" fill="#FFFFFF" transform="translate(0,0)"/>
<path d="" fill="#FFFFFF" transform="translate(0,0)"/>
<path d="" fill="#FFFFFF" transform="translate(0,0)"/>
<path d="" fill="#FFFFFF" transform="translate(0,0)"/>
<path d="" fill="#FFFFFF" transform="translate(0,0)"/>
<path d="" fill="#FFFFFF" transform="translate(0,0)"/>
<path d="" fill="#FFFFFF" transform="translate(0,0)"/>
<path d="" fill="#FFFFFF" transform="translate(0,0)"/>
<path d="" fill="#FFFFFF" transform="translate(0,0)"/>
<path d="" fill="#00FFFF" transform="translate(0,0)"/>
<path d="" fill="#FFFFFF" transform="translate(0,0)"/>
<path d="" fill="#FFFFFF" transform="translate(0,0)"/>
<path d="" fill="#FFFFFF" transform="translate(0,0)"/>
<path d="" fill="#FFFFFF" transform="translate(0,0)"/>
<path d="" fill="#FFFFFF" transform="translate(0,0)"/>
<path d="" fill="#FFFFFF" transform="translate(0,0)"/>
<path d="" fill="#FFFFFF" transform="translate(0,0)"/>
<path d="" fill="#FFFFFF" transform="translate(0,0)"/>
<path d="" fill="#FFFFFF" transform="translate(0,0)"/>
<path d="" fill="#FFFFFF" transform="translate(0,0)"/>
<path d="" fill="#FFFFFF" transform="translate(0,0)"/>
<path d="" fill="#FFFFFF" transform="translate(0,0)"/>
<path d="" fill="#FFFFFF" transform="translate(0,0)"/>
<path d="" fill="#FFFFFF" transform="translate(0,0)"/>
<path d="" fill="#FFFFFF" transform="translate(0,0)"/>
<path d="" fill="#FFFFFF" transform="translate(0,0)"/>
<path d="" fill="#FFFFFF" transform="translate(0,0)"/>
<path d="" fill="#FFFFFF" transform="translate(0,0)"/>
<path d="" fill="#FFFFFF" transform="translate(0,0)"/>
<path d="" fill="#FFFFFF" transform="translate(0,0)"/>
<path d="" fill="#FFFFFF" transform="translate(0,0)"/>
<path d="" fill="#FFFFFF" transform="translate(0,0)"/>
<path d="" fill="#00FFFF" transform="translate(0,0)"/>
<path d="" fill="#FFFFFF" transform="translate(0,0)"/>
<path d="" fill="#FFFFFF" transform="translate(0,0)"/>
<path d="" fill="#FFFFFF" transform="translate(0,0)"/>
<path d="" fill="#FFFFFF" transform="translate(0,0)"/>
<path d="" fill="#FFFFFF" transform="translate(0,0)"/>
<path d="" fill="#FFFFFF" transform="translate(0,0)"/>
<path d="" fill="#FFFFFF" transform="translate(0,0)"/>
<path d="" fill="#FFFFFF" transform="translate(0,0)"/>
</svg>
