<?xml version="1.0" encoding="UTF-8"?>
<svg version="1.1" xmlns="http://www.w3.org/2000/svg" width="190" height="142">
<path d="M0 0 C0.86032837 -0.00832352 1.72065674 -0.01664703 2.60705566 -0.02522278 C5.46163411 -0.0493903 8.31598428 -0.05810368 11.1706543 -0.06469727 C13.1512204 -0.07365944 15.1317858 -0.0827812 17.11235046 -0.09205627 C21.26941577 -0.10856786 25.42640033 -0.11625016 29.58349609 -0.11914062 C34.91027631 -0.12452244 40.23629744 -0.16218498 45.56286335 -0.20788479 C49.65582547 -0.2376316 53.74860444 -0.24486369 57.84166527 -0.24586678 C59.80528421 -0.25007487 61.76890341 -0.26253272 63.73241615 -0.28338432 C66.48103137 -0.31024563 69.22788297 -0.30548891 71.9765625 -0.29296875 C72.78765976 -0.30780304 73.59875702 -0.32263733 74.43443298 -0.33792114 C78.5131769 -0.28502378 80.26404943 0.01055912 83.68902588 2.43269348 C86.08790199 5.89102607 86.30013853 7.7034563 86.28173828 11.88500977 C86.28781601 13.19631866 86.29389374 14.50762756 86.30015564 15.8586731 C86.28125372 17.28136296 86.26150385 18.70404178 86.2409668 20.12670898 C86.23671391 21.59210794 86.23438781 23.05751365 86.23390198 24.5229187 C86.22774682 27.5879386 86.20509464 30.65222472 86.16943359 33.71704102 C86.12408148 37.64585855 86.10940288 41.57401379 86.10569668 45.50306892 C86.10126931 48.52626068 86.08596901 51.54931347 86.06682014 54.57244492 C86.05794223 56.0213189 86.05121014 57.47020768 86.04665947 58.91910172 C86.03761999 60.94166375 86.01354599 62.96414179 85.98876953 64.98657227 C85.97280983 66.71268234 85.97280983 66.71268234 85.95652771 68.47366333 C85.68237305 71.30639648 85.68237305 71.30639648 83.68237305 74.30639648 C83.02237305 74.30639648 82.36237305 74.30639648 81.68237305 74.30639648 C81.68237305 74.96639648 81.68237305 75.62639648 81.68237305 76.30639648 C70.01698155 76.39902397 58.35167736 76.47012475 46.68599319 76.51364517 C41.26928988 76.53453147 35.85283793 76.56286842 30.4362793 76.6081543 C25.21024857 76.65157445 19.9844598 76.67552573 14.75826263 76.68590546 C12.76311177 76.69330369 10.76797435 76.70775052 8.77292633 76.72931671 C5.98105619 76.75829968 3.19018942 76.76235462 0.39819336 76.76049805 C-0.428992 76.77487915 -1.25617737 76.78926025 -2.10842896 76.80407715 C-5.71528454 76.77807613 -7.85954545 76.64611952 -10.79986572 74.46551514 C-13.39231443 70.7775804 -13.45101399 67.74107079 -13.47875977 63.35375977 C-13.48836731 62.1288382 -13.49797485 60.90391663 -13.50787354 59.64187622 C-13.5127215 58.30348904 -13.51700034 56.96509969 -13.52075195 55.62670898 C-13.52650613 54.2529195 -13.53226383 52.87913003 -13.5380249 51.50534058 C-13.54852502 48.62538276 -13.55437418 45.74545278 -13.55786133 42.86547852 C-13.56334485 39.18115892 -13.58737355 35.49720912 -13.61583328 31.81300545 C-13.63448721 28.97507666 -13.63966671 26.13723647 -13.6411972 23.29925156 C-13.64421793 21.9413132 -13.65222693 20.58337619 -13.66538239 19.2254982 C-13.68249889 17.32301435 -13.67870972 15.42037746 -13.67407227 13.51782227 C-13.6777179 12.4365506 -13.68136353 11.35527893 -13.68511963 10.24124146 C-12.59545129 1.53900642 -7.78381842 0.00633123 0 0 Z " fill="#E9E8E7" transform="translate(52.317626953125,35.693603515625)"/>
<path d="M0 0 C0.86032837 -0.00832352 1.72065674 -0.01664703 2.60705566 -0.02522278 C5.46163411 -0.0493903 8.31598428 -0.05810368 11.1706543 -0.06469727 C13.1512204 -0.07365944 15.1317858 -0.0827812 17.11235046 -0.09205627 C21.26941577 -0.10856786 25.42640033 -0.11625016 29.58349609 -0.11914062 C34.91027631 -0.12452244 40.23629744 -0.16218498 45.56286335 -0.20788479 C49.65582547 -0.2376316 53.74860444 -0.24486369 57.84166527 -0.24586678 C59.80528421 -0.25007487 61.76890341 -0.26253272 63.73241615 -0.28338432 C66.48103137 -0.31024563 69.22788297 -0.30548891 71.9765625 -0.29296875 C72.78765976 -0.30780304 73.59875702 -0.32263733 74.43443298 -0.33792114 C78.5131769 -0.28502378 80.26404943 0.01055912 83.68902588 2.43269348 C86.08790199 5.89102607 86.30013853 7.7034563 86.28173828 11.88500977 C86.28781601 13.19631866 86.29389374 14.50762756 86.30015564 15.8586731 C86.28125372 17.28136296 86.26150385 18.70404178 86.2409668 20.12670898 C86.23671391 21.59210794 86.23438781 23.05751365 86.23390198 24.5229187 C86.22774682 27.5879386 86.20509464 30.65222472 86.16943359 33.71704102 C86.12408148 37.64585855 86.10940288 41.57401379 86.10569668 45.50306892 C86.10126931 48.52626068 86.08596901 51.54931347 86.06682014 54.57244492 C86.05794223 56.0213189 86.05121014 57.47020768 86.04665947 58.91910172 C86.03761999 60.94166375 86.01354599 62.96414179 85.98876953 64.98657227 C85.97280983 66.71268234 85.97280983 66.71268234 85.95652771 68.47366333 C85.68237305 71.30639648 85.68237305 71.30639648 83.68237305 74.30639648 C83.02237305 74.30639648 82.36237305 74.30639648 81.68237305 74.30639648 C81.68237305 74.96639648 81.68237305 75.62639648 81.68237305 76.30639648 C70.01698155 76.39902397 58.35167736 76.47012475 46.68599319 76.51364517 C41.26928988 76.53453147 35.85283793 76.56286842 30.4362793 76.6081543 C25.21024857 76.65157445 19.9844598 76.67552573 14.75826263 76.68590546 C12.76311177 76.69330369 10.76797435 76.70775052 8.77292633 76.72931671 C5.98105619 76.75829968 3.19018942 76.76235462 0.39819336 76.76049805 C-0.428992 76.77487915 -1.25617737 76.78926025 -2.10842896 76.80407715 C-5.71528454 76.77807613 -7.85954545 76.64611952 -10.79986572 74.46551514 C-13.39231443 70.7775804 -13.45101399 67.74107079 -13.47875977 63.35375977 C-13.48836731 62.1288382 -13.49797485 60.90391663 -13.50787354 59.64187622 C-13.5127215 58.30348904 -13.51700034 56.96509969 -13.52075195 55.62670898 C-13.52650613 54.2529195 -13.53226383 52.87913003 -13.5380249 51.50534058 C-13.54852502 48.62538276 -13.55437418 45.74545278 -13.55786133 42.86547852 C-13.56334485 39.18115892 -13.58737355 35.49720912 -13.61583328 31.81300545 C-13.63448721 28.97507666 -13.63966671 26.13723647 -13.6411972 23.29925156 C-13.64421793 21.9413132 -13.65222693 20.58337619 -13.66538239 19.2254982 C-13.68249889 17.32301435 -13.67870972 15.42037746 -13.67407227 13.51782227 C-13.6777179 12.4365506 -13.68136353 11.35527893 -13.68511963 10.24124146 C-12.59545129 1.53900642 -7.78381842 0.00633123 0 0 Z M-7.31762695 18.30639648 C-7.31762695 35.79639648 -7.31762695 53.28639648 -7.31762695 71.30639648 C8.12084777 71.33545987 8.12084777 71.33545987 23.55932617 71.35522461 C29.85173379 71.36121325 36.14412692 71.36831412 42.43652344 71.38183594 C47.50690431 71.39266414 52.57726967 71.39867317 57.64766121 71.40127373 C59.58664253 71.4031281 61.52562295 71.40674894 63.4645977 71.41212654 C66.17059064 71.41933609 68.87651861 71.42038746 71.58251953 71.41992188 C72.39243851 71.42351715 73.20235748 71.42711243 74.03681946 71.43081665 C77.65743167 71.7663035 77.65743167 71.7663035 80.68237305 70.30639648 C80.77577738 68.67964871 80.79982476 67.04885597 80.79589844 65.41943359 C80.79571716 63.83600159 80.79571716 63.83600159 80.79553223 62.22058105 C80.79041626 61.10292358 80.78530029 59.98526611 80.7800293 58.83374023 C80.77902222 57.81252075 80.77801514 56.79130127 80.77697754 55.73913574 C80.7717272 51.90737798 80.75776608 48.07563616 80.74487305 44.24389648 C80.72424805 35.68452148 80.70362305 27.12514648 80.68237305 18.30639648 C51.64237305 18.30639648 22.60237305 18.30639648 -7.31762695 18.30639648 Z " fill="#2C2C2A" transform="translate(52.317626953125,35.693603515625)"/>
<path d="M0 0 C5.589375 -0.020625 11.17875 -0.04125 16.9375 -0.0625 C18.70343506 -0.071604 20.46937012 -0.08070801 22.28881836 -0.09008789 C23.68082605 -0.09300714 25.07283459 -0.09555567 26.46484375 -0.09765625 C27.55835144 -0.1053302 27.55835144 -0.1053302 28.6739502 -0.11315918 C30.44970076 -0.11347011 32.22534208 -0.06228515 34 0 C35 1 35 1 35.12025452 2.75270081 C35.11803391 3.51437057 35.11581329 4.27604034 35.11352539 5.06079102 C35.11344986 5.92160782 35.11337433 6.78242462 35.11329651 7.66932678 C35.10813522 8.60473801 35.10297394 9.54014923 35.09765625 10.50390625 C35.0962413 11.45692123 35.09482635 12.40993622 35.09336853 13.39183044 C35.08775152 16.44875165 35.07519616 19.50560077 35.0625 22.5625 C35.05748719 24.62955624 35.05292391 26.69661362 35.04882812 28.76367188 C35.03862558 33.84249833 35.01905356 38.92116806 35 44 C23.45 44 11.9 44 0 44 C0 29.48 0 14.96 0 0 Z " fill="#515150" transform="translate(53,58)"/>
<path d="M0 0 C1.20948555 0.01078583 1.20948555 0.01078583 2.44340515 0.02178955 C3.29225784 0.0214975 4.14111053 0.02120544 5.01568604 0.02090454 C7.82942324 0.02230105 10.64289764 0.0378773 13.45658875 0.05352783 C15.40429032 0.05725682 17.35199376 0.06010433 19.29969788 0.06210327 C24.43226783 0.06974872 29.56472504 0.08940502 34.69725037 0.11151123 C39.93211848 0.13195005 45.16700476 0.14110078 50.40190125 0.15118408 C60.67799252 0.17265006 70.95400001 0.20679697 81.23002625 0.24884033 C82.22002625 2.22884033 82.22002625 2.22884033 83.23002625 4.24884033 C81.59844322 4.26430153 81.59844322 4.26430153 79.93389893 4.28007507 C69.70643194 4.37763393 59.47902818 4.48035092 49.25166416 4.58817959 C43.99308987 4.64345408 38.73451007 4.69688118 33.47587585 4.74615479 C28.40544561 4.79373175 23.33508528 4.84607187 18.26473808 4.90178108 C16.32577685 4.92223496 14.38679643 4.9409429 12.44780159 4.95791435 C9.7417567 4.9818915 7.03584525 5.01195478 4.32987976 5.04351807 C3.51996078 5.04927353 2.71004181 5.05502899 1.87557983 5.06095886 C-1.74661601 4.77233702 -1.74661601 4.77233702 -4.76997375 6.24884033 C-4.86402517 8.24315763 -4.88740625 10.24083576 -4.88349915 12.23736572 C-4.88342361 13.51861832 -4.88334808 14.79987091 -4.88327026 16.11994934 C-4.87816285 17.52879881 -4.87294684 18.93764789 -4.86763 20.34649658 C-4.86576578 21.77996268 -4.8643419 23.2134294 -4.86334229 24.64689636 C-4.85951748 28.4264399 -4.84968752 32.20594523 -4.83863831 35.98547363 C-4.82842338 39.83953332 -4.82384449 43.69359915 -4.81880188 47.54766846 C-4.80806521 55.1147432 -4.79098925 62.68178642 -4.76997375 70.24884033 C-1.56309305 71.85228069 1.92185472 71.37806779 5.44340515 71.36236572 C6.29225784 71.36251175 7.14111053 71.36265778 8.01568604 71.36280823 C10.82934601 71.36210999 13.64294029 71.35432173 16.45658875 71.34649658 C18.40429142 71.34463209 20.35199456 71.34320833 22.29969788 71.34220886 C27.43222849 71.33838617 32.56473091 71.32855798 37.69725037 71.31750488 C42.93213011 71.30728545 48.1670144 71.3027101 53.40190125 71.29766846 C63.67795531 71.28693551 73.95398844 71.26986204 84.23002625 71.24884033 C83.73502625 72.73384033 83.73502625 72.73384033 83.23002625 74.24884033 C52.87002625 74.24884033 22.51002625 74.24884033 -8.76997375 74.24884033 C-10.57276199 69.74186973 -11.02474651 67.70987282 -11.04463196 63.06915283 C-11.05416397 61.84438232 -11.06369598 60.61961182 -11.07351685 59.35772705 C-11.07260544 58.04304443 -11.07169403 56.72836182 -11.070755 55.37384033 C-11.07464527 54.00290803 -11.07898062 52.63197692 -11.08374023 51.26104736 C-11.09118671 48.39300624 -11.09092222 45.52508826 -11.08564758 42.65704346 C-11.07984863 38.98844145 -11.09680124 35.32034361 -11.11999226 31.65182495 C-11.13474782 28.82245964 -11.13559896 25.99321534 -11.13248253 23.16381836 C-11.13324289 21.15584083 -11.14709719 19.14788202 -11.16116333 17.13995361 C-11.15493454 15.91518311 -11.14870575 14.6904126 -11.14228821 13.42852783 C-11.14291763 12.35328857 -11.14354706 11.27804932 -11.14419556 10.17022705 C-10.24300456 3.13502123 -6.87163005 0.02571157 0 0 Z " fill="#242220" transform="translate(49.76997375488281,35.75115966796875)"/>
<path d="M0 0 C3.3 0 6.6 0 10 0 C7.8614515 2.1385485 6.86724686 2.42655063 4 3 C4 3.99 4 4.98 4 6 C4.99 6 5.98 6 7 6 C7.66 5.01 8.32 4.02 9 3 C9.33 3.99 9.66 4.98 10 6 C13.3 6 16.6 6 20 6 C20 4.02 20 2.04 20 0 C28.71844003 -0.02312611 37.43686956 -0.04091646 46.15533352 -0.05181217 C50.20325742 -0.05704041 54.25116041 -0.06413699 58.29907227 -0.07543945 C62.20235971 -0.08627043 66.10562699 -0.09227728 70.0089283 -0.09487724 C71.50133647 -0.09673111 72.99374348 -0.100351 74.48614311 -0.10573006 C76.56948139 -0.11294331 78.65273531 -0.11399083 80.73608398 -0.11352539 C81.92411118 -0.115746 83.11213837 -0.11796661 84.33616638 -0.12025452 C87 0 87 0 88 1 C88 3.64 88 6.28 88 9 C58.96 9 29.92 9 0 9 C0 6.03 0 3.06 0 0 Z " fill="#EDECEB" transform="translate(45,41)"/>
<path d="M0 0 C10.89 0 21.78 0 33 0 C33 1.32 33 2.64 33 4 C32.01 4.33 31.02 4.66 30 5 C30 4.01 30 3.02 30 2 C22.08 2.33 14.16 2.66 6 3 C9.28308013 7.14951125 9.28308013 7.14951125 12.58203125 11.28637695 C16 15.66666667 16 15.66666667 16 19 C16.99 19 17.98 19 19 19 C20.42578125 21.16796875 20.42578125 21.16796875 22 24 C23.3683291 25.792171 24.7647509 27.56321832 26.1875 29.3125 C26.90292969 30.19550781 27.61835937 31.07851562 28.35546875 31.98828125 C28.89816406 32.65214844 29.44085938 33.31601563 30 34 C29.67 34.66 29.34 35.32 29 36 C28.01 36 27.02 36 26 36 C24.02734375 33.62890625 24.02734375 33.62890625 21.9375 30.5625 C19.51679525 26.66822166 19.51679525 26.66822166 16 24 C15.75378906 24.54398438 15.50757812 25.08796875 15.25390625 25.6484375 C13.724054 28.5175062 11.87557185 31.01511014 9.9375 33.625 C7.24523621 37.17515164 7.24523621 37.17515164 5 41 C5.73637695 40.98952637 6.47275391 40.97905273 7.23144531 40.96826172 C10.57092876 40.92666298 13.91035765 40.90066136 17.25 40.875 C18.40886719 40.85824219 19.56773438 40.84148437 20.76171875 40.82421875 C21.87675781 40.81777344 22.99179688 40.81132813 24.140625 40.8046875 C25.68024902 40.78897705 25.68024902 40.78897705 27.25097656 40.77294922 C30 41 30 41 34 43 C22.78 43 11.56 43 0 43 C0 28.81 0 14.62 0 0 Z " fill="#2E2D2D" transform="translate(53,59)"/>
<path d="M0 0 C0.33 0 0.66 0 1 0 C1 2.64 1 5.28 1 8 C30.04 8 59.08 8 89 8 C89 9.32 89 10.64 89 12 C59.96 12 30.92 12 1 12 C1 29.16 1 46.32 1 64 C0.67 64 0.34 64 0 64 C0 42.88 0 21.76 0 0 Z " fill="#656464" transform="translate(44,42)"/>
<path d="M0 0 C1.32 0 2.64 0 4 0 C4.33 17.49 4.66 34.98 5 53 C8.20688071 54.60344035 11.69182847 54.12922745 15.21337891 54.11352539 C16.0622316 54.11367142 16.91108429 54.11381744 17.78565979 54.1139679 C20.59931977 54.11326966 23.41291404 54.1054814 26.2265625 54.09765625 C28.17426518 54.09579175 30.12196832 54.094368 32.06967163 54.09336853 C37.20220224 54.08954583 42.33470467 54.07971765 47.46722412 54.06866455 C52.70210387 54.05844512 57.93698816 54.05386977 63.171875 54.04882812 C73.44792907 54.03809517 83.72396219 54.0210217 94 54 C93.67 54.99 93.34 55.98 93 57 C62.64 57 32.28 57 1 57 C-0.28566729 54.42866541 -0.12009778 52.602829 -0.11352539 49.72412109 C-0.11344986 48.6231308 -0.11337433 47.5221405 -0.11329651 46.38778687 C-0.10813522 45.19505157 -0.10297394 44.00231628 -0.09765625 42.7734375 C-0.0962413 41.55548492 -0.09482635 40.33753235 -0.09336853 39.08267212 C-0.08775639 35.1800901 -0.07520179 31.27756477 -0.0625 27.375 C-0.05748657 24.73437583 -0.05292339 22.09375076 -0.04882812 19.453125 C-0.03778301 12.96873055 -0.02103302 6.48436932 0 0 Z " fill="#302F2E" transform="translate(40,53)"/>
<path d="M0 0 C9.9 0 19.8 0 30 0 C30 0.99 30 1.98 30 3 C29.34515625 3.35191406 28.6903125 3.70382813 28.015625 4.06640625 C20.92336749 7.90303708 13.95019541 11.91164976 7 16 C14.59 16.33 22.18 16.66 30 17 C30 17.33 30 17.66 30 18 C20.1 18 10.2 18 0 18 C0 12.06 0 6.12 0 0 Z " fill="#272727" transform="translate(93,59)"/>
<path d="M0 0 C0.33 0 0.66 0 1 0 C1 17.16 1 34.32 1 52 C1.66 52 2.32 52 3 52 C3 49.03 3 46.06 3 43 C3.33 43 3.66 43 4 43 C4.22226864 44.76913824 4.42733873 46.54044371 4.625 48.3125 C4.79902344 49.79169922 4.79902344 49.79169922 4.9765625 51.30078125 C5 54 5 54 3 57 C2.34 57 1.68 57 1 57 C1 57.66 1 58.32 1 59 C-28.7 59 -58.4 59 -89 59 C-89.33 58.34 -89.66 57.68 -90 57 C-60.3 56.67 -30.6 56.34 0 56 C0 55.67 0 55.34 0 55 C-28.38 55 -56.76 55 -86 55 C-86 54.67 -86 54.34 -86 54 C-57.95 53.67 -29.9 53.34 -1 53 C-0.67 35.51 -0.34 18.02 0 0 Z " fill="#494746" transform="translate(133,53)"/>
<path d="M0 0 C4.53897705 -0.02465392 9.07791543 -0.04283789 13.61694336 -0.05493164 C15.16219766 -0.0599714 16.70744716 -0.0668032 18.25268555 -0.07543945 C20.46925029 -0.08752076 22.68575218 -0.09323173 24.90234375 -0.09765625 C25.5971434 -0.10281754 26.29194305 -0.10797882 27.00779724 -0.11329651 C28.6722933 -0.11349277 30.33665499 -0.06189129 32 0 C33 1 33 1 33.11352539 2.94946289 C33.10828857 3.7821167 33.10305176 4.61477051 33.09765625 5.47265625 C33.09443359 6.37177734 33.09121094 7.27089844 33.08789062 8.19726562 C33.07532227 9.61555664 33.07532227 9.61555664 33.0625 11.0625 C33.05798828 12.01189453 33.05347656 12.96128906 33.04882812 13.93945312 C33.0370011 16.29303065 33.02052025 18.64648477 33 21 C28.46102295 21.02465392 23.92208457 21.04283789 19.38305664 21.05493164 C17.83780234 21.0599714 16.29255284 21.0668032 14.74731445 21.07543945 C12.53074971 21.08752076 10.31424782 21.09323173 8.09765625 21.09765625 C7.05545677 21.10539818 7.05545677 21.10539818 5.99220276 21.11329651 C4.3277067 21.11349277 2.66334501 21.06189129 1 21 C0 20 0 20 -0.11352539 18.05053711 C-0.10567017 16.8015564 -0.10567017 16.8015564 -0.09765625 15.52734375 C-0.09443359 14.62822266 -0.09121094 13.72910156 -0.08789062 12.80273438 C-0.07951172 11.85720703 -0.07113281 10.91167969 -0.0625 9.9375 C-0.05798828 8.98810547 -0.05347656 8.03871094 -0.04882812 7.06054688 C-0.0370011 4.70696935 -0.02052025 2.35351523 0 0 Z M1 1 C1 6.94 1 12.88 1 19 C10.9 19 20.8 19 31 19 C31 18.67 31 18.34 31 18 C19.615 17.505 19.615 17.505 8 17 C15.5625 12.75 15.5625 12.75 17.90063477 11.43652344 C22.27750286 8.97561583 26.6431458 6.49617402 31 4 C31 3.01 31 2.02 31 1 C21.1 1 11.2 1 1 1 Z " fill="#61605F" transform="translate(92,58)"/>
<path d="M0 0 C4.04376689 1.3479223 5.66425623 4.084553 8.125 7.375 C8.80755859 8.26058594 8.80755859 8.26058594 9.50390625 9.1640625 C11.4705742 11.75516212 12.964438 13.89331401 14 17 C5.75 17 -2.5 17 -11 17 C-9.23010156 12.5752539 -7.24390865 9.37673721 -4.375 5.6875 C-3.95476562 5.13771484 -3.53453125 4.58792969 -3.1015625 4.02148438 C-2.07279961 2.67707832 -1.0370991 1.33798587 0 0 Z " fill="#E9E8E7" transform="translate(69,83)"/>
<path d="M0 0 C2.375 0.6875 2.375 0.6875 5 2 C6.3125 4.625 6.3125 4.625 7 7 C6.01 7 5.02 7 4 7 C3.67 9.31 3.34 11.62 3 14 C2.67 14 2.34 14 2 14 C1.505 10.04 1.505 10.04 1 6 C-20.78 6 -42.56 6 -65 6 C-65 7.65 -65 9.3 -65 11 C-68.68050741 12.17776237 -72.16162601 12.06978862 -76 12 C-76.99 12 -77.98 12 -79 12 C-80.33981486 11.6937566 -81.67511887 11.36548445 -83 11 C-82.67 9.68 -82.34 8.36 -82 7 C-80.68 6.67 -79.36 6.34 -78 6 C-80.31 5.67 -82.62 5.34 -85 5 C-85 4.67 -85 4.34 -85 4 C-56.62 3.67 -28.24 3.34 1 3 C0.505 1.515 0.505 1.515 0 0 Z " fill="#5A5957" transform="translate(131,36)"/>
<path d="M0 0 C7.92 0 15.84 0 24 0 C22.13318313 3.73363374 19.98617958 6.92979851 17.5 10.25 C17.09652344 10.80429688 16.69304687 11.35859375 16.27734375 11.9296875 C15.23549829 13.32569165 14.12254588 14.66802392 13 16 C12.34 16 11.68 16 11 16 C9.41179934 14.11549324 7.94717539 12.23813233 6.5 10.25 C6.09652344 9.71117188 5.69304688 9.17234375 5.27734375 8.6171875 C3.19847583 5.80419791 1.57329877 3.14659753 0 0 Z " fill="#E7E6E5" transform="translate(58,61)"/>
<path d="M0 0 C6.13684211 6.13684211 6.13684211 6.13684211 8.9375 9.5 C9.56527344 10.2321875 10.19304687 10.964375 10.83984375 11.71875 C12 14 12 14 11.4765625 16.38671875 C9.69028301 19.5481499 7.64680458 22.44005502 5.4375 25.3125 C4.8197168 26.13717773 4.8197168 26.13717773 4.18945312 26.97851562 C3.1550682 28.34133045 2.08087744 29.67375704 1 31 C0.67 31 0.34 31 0 31 C0 20.77 0 10.54 0 0 Z " fill="#E2E1DF" transform="translate(56,65)"/>
<path d="M0 0 C4.15050444 3.90635712 8.02455804 8.11250427 11 13 C11 13.99 11 14.98 11 16 C11.99 16 12.98 16 14 16 C15.42578125 18.16796875 15.42578125 18.16796875 17 21 C18.3683291 22.792171 19.7647509 24.56321832 21.1875 26.3125 C21.90292969 27.19550781 22.61835937 28.07851562 23.35546875 28.98828125 C23.89816406 29.65214844 24.44085938 30.31601563 25 31 C24.67 31.66 24.34 32.32 24 33 C23.01 33 22.02 33 21 33 C19.02734375 30.62890625 19.02734375 30.62890625 16.9375 27.5625 C14.51679525 23.66822166 14.51679525 23.66822166 11 21 C10.7525 21.53625 10.505 22.0725 10.25 22.625 C8.70303025 25.56424252 6.86985631 28.25754408 5 31 C4.67 30.34 4.34 29.68 4 29 C3.34 28.67 2.68 28.34 2 28 C2.52851562 27.40832031 3.05703125 26.81664063 3.6015625 26.20703125 C4.26929688 25.41683594 4.93703125 24.62664062 5.625 23.8125 C6.29789063 23.03519531 6.97078125 22.25789063 7.6640625 21.45703125 C8.10492188 20.64621094 8.54578125 19.83539063 9 19 C6.76799408 12.719134 6.76799408 12.719134 -1 4 C-1.33 13.9 -1.66 23.8 -2 34 C-2.33 34 -2.66 34 -3 34 C-3 23.11 -3 12.22 -3 1 C-2.01 0.67 -1.02 0.34 0 0 Z " fill="#4D4C4A" transform="translate(58,62)"/>
<path d="M0 0 C0.33 0 0.66 0 1 0 C1 9.9 1 19.8 1 30 C-2.28674376 26.71325624 -5.04776903 23.81959755 -7.8125 20.1875 C-8.41707031 19.39730469 -9.02164063 18.60710937 -9.64453125 17.79296875 C-10.09183594 17.20128906 -10.53914063 16.60960938 -11 16 C-7.91751688 10.20493173 -4.29720664 4.9739321 0 0 Z " fill="#E7E6E5" transform="translate(83,65)"/>
<path d="M0 0 C0 3.3 0 6.6 0 10 C-4.95 10 -9.9 10 -15 10 C-14 6 -14 6 -11.85546875 4.296875 C-10.97503906 3.78640625 -10.09460938 3.2759375 -9.1875 2.75 C-7.87845703 1.96882813 -7.87845703 1.96882813 -6.54296875 1.171875 C-4 0 -4 0 0 0 Z " fill="#EBEAE9" transform="translate(121,64)"/>
<path d="M0 0 C1 1 1 1 1.0625 3.5625 C1.041875 4.366875 1.02125 5.17125 1 6 C-2.68050741 7.17776237 -6.16162601 7.06978862 -10 7 C-10.99 7 -11.98 7 -13 7 C-14.33981486 6.6937566 -15.67511887 6.36548445 -17 6 C-16.875 4.125 -16.875 4.125 -16 2 C-11.0197709 -0.55396364 -5.48034083 -0.44379408 0 0 Z " fill="#868583" transform="translate(65,41)"/>
<path d="M0 0 C0.33 0.99 0.66 1.98 1 3 C1.66 3 2.32 3 3 3 C3 13.56 3 24.12 3 35 C2.34 34.67 1.68 34.34 1 34 C1 24.43 1 14.86 1 5 C-2.3 9.62 -5.6 14.24 -9 19 C-9.33 18.34 -9.66 17.68 -10 17 C-10.99 16.67 -11.98 16.34 -13 16 C-12.01 15.1028125 -12.01 15.1028125 -11 14.1875 C-6.73832938 9.96267379 -3.44874925 4.88644124 0 0 Z " fill="#666564" transform="translate(82,61)"/>
<path d="M0 0 C10.23 0 20.46 0 31 0 C31 0.99 31 1.98 31 3 C20.77 3 10.54 3 0 3 C0 2.01 0 1.02 0 0 Z " fill="#373634" transform="translate(93,85)"/>
<path d="M0 0 C3.3 0 6.6 0 10 0 C7.8614515 2.1385485 6.86724686 2.42655063 4 3 C4 3.99 4 4.98 4 6 C4.99 6 5.98 6 7 6 C7.66 5.01 8.32 4.02 9 3 C9.33 3.99 9.66 4.98 10 6 C11.11375 5.95875 12.2275 5.9175 13.375 5.875 C17 6 17 6 19 8 C18 9 18 9 16.23413086 9.11352539 C15.48526611 9.10828857 14.73640137 9.10305176 13.96484375 9.09765625 C13.15595703 9.09443359 12.34707031 9.09121094 11.51367188 9.08789062 C10.66353516 9.07951172 9.81339844 9.07113281 8.9375 9.0625 C8.08349609 9.05798828 7.22949219 9.05347656 6.34960938 9.04882812 C4.23304337 9.03700373 2.11651315 9.01906769 0 9 C0 6.03 0 3.06 0 0 Z " fill="#E9E7E7" transform="translate(45,41)"/>
<path d="M0 0 C0.33 0 0.66 0 1 0 C1.00808685 0.65954681 1.01617371 1.31909363 1.02450562 1.99862671 C1.11035572 8.84401207 1.20985003 15.68910129 1.31738281 22.53417969 C1.3557398 25.09109537 1.39058062 27.64806625 1.421875 30.20507812 C1.46737976 33.87389909 1.5253981 37.54233773 1.5859375 41.2109375 C1.59748871 42.35992523 1.60903992 43.50891296 1.62094116 44.69271851 C1.64081085 45.7536673 1.66068054 46.81461609 1.68115234 47.90771484 C1.69447601 48.84481293 1.70779968 49.78191101 1.7215271 50.74740601 C1.79034466 53.20035151 1.79034466 53.20035151 4 55 C3.01 55 2.02 55 1 55 C1 55.66 1 56.32 1 57 C0.01 57 -0.98 57 -2 57 C-3 54 -3 54 -2.08242798 52.12774658 C-1.72522675 51.42559021 -1.36802551 50.72343384 -1 50 C-0.6759401 47.57882314 -0.6759401 47.57882314 -0.68115234 44.95605469 C-0.66128265 43.95531921 -0.64141296 42.95458374 -0.62094116 41.92352295 C-0.60938995 40.85047913 -0.59783875 39.7774353 -0.5859375 38.671875 C-0.56657135 37.56773254 -0.5472052 36.46359009 -0.5272522 35.32598877 C-0.46749108 31.80073767 -0.42108436 28.27545385 -0.375 24.75 C-0.33681708 22.35936079 -0.29776517 19.96873529 -0.2578125 17.578125 C-0.16179233 11.71887174 -0.07673452 5.85953585 0 0 Z " fill="#343331" transform="translate(43,53)"/>
<path d="M0 0 C5.28 0 10.56 0 16 0 C16.33 1.32 16.66 2.64 17 4 C11.39 4 5.78 4 0 4 C0 2.68 0 1.36 0 0 Z " fill="#61605E" transform="translate(93,93)"/>
<path d="M0 0 C0.66 0 1.32 0 2 0 C2.02685938 2.14576637 2.04633088 4.29162645 2.0625 6.4375 C2.07410156 7.63246094 2.08570312 8.82742187 2.09765625 10.05859375 C2 13 2 13 1 14 C-0.63472882 14.08700342 -2.27314055 14.10701063 -3.91015625 14.09765625 C-4.89951172 14.09443359 -5.88886719 14.09121094 -6.90820312 14.08789062 C-7.94912109 14.07951172 -8.99003906 14.07113281 -10.0625 14.0625 C-11.10728516 14.05798828 -12.15207031 14.05347656 -13.22851562 14.04882812 C-15.8190666 14.03699913 -18.40950559 14.02051689 -21 14 C-18.72635823 11.57000464 -17.31726155 10.57194165 -14 10 C-14 10.66 -14 11.32 -14 12 C-9.05 12 -4.1 12 1 12 C1 8.7 1 5.4 1 2 C0.34 1.67 -0.32 1.34 -1 1 C-0.67 0.67 -0.34 0.34 0 0 Z " fill="#9E9E9D" transform="translate(120,62)"/>
<path d="M0 0 C0.33 0.66 0.66 1.32 1 2 C6.94 2 12.88 2 19 2 C19.33 1.34 19.66 0.68 20 0 C21.5 1.375 21.5 1.375 23 3 C23 3.66 23 4.32 23 5 C14.75 5 6.5 5 -2 5 C-1.34 3.35 -0.68 1.7 0 0 Z " fill="#B1AFAF" transform="translate(60,95)"/>
<path d="M0 0 C1 1 1 1 1.0625 3.5625 C1.041875 4.366875 1.02125 5.17125 1 6 C-2.05263664 6.98120464 -3.94736336 6.98120464 -7 6 C-7.33 4.35 -7.66 2.7 -8 1 C-5.26752652 -0.36623674 -3.01801098 -0.128426 0 0 Z " fill="#DFDEDC" transform="translate(65,41)"/>
<path d="M0 0 C0.66 0 1.32 0 2 0 C1.3826474 4.01279188 -0.49821876 6.85490358 -3 10 C-4.32 10 -5.64 10 -7 10 C-7 7.03 -7 4.06 -7 1 C-6.01 2.485 -6.01 2.485 -5 4 C-4.34 4 -3.68 4 -3 4 C-2.505 3.34 -2.01 2.68 -1.5 2 C-1.005 1.34 -0.51 0.68 0 0 Z " fill="#302E2E" transform="translate(60,91)"/>
<path d="M0 0 C3.59634744 3.49359465 6.83451967 7.11098131 10 11 C9.67 11.66 9.34 12.32 9 13 C6 13 6 13 4.140625 11.171875 C3.51671875 10.37265625 2.8928125 9.5734375 2.25 8.75 C1.61578125 7.96109375 0.9815625 7.1721875 0.328125 6.359375 C-1 4 -1 4 -0.703125 1.703125 C-0.47109375 1.14109375 -0.2390625 0.5790625 0 0 Z " fill="#535250" transform="translate(73,82)"/>
<path d="M0 0 C0.99 0.33 1.98 0.66 3 1 C3 4.3 3 7.6 3 11 C2.34 11 1.68 11 1 11 C1 10.34 1 9.68 1 9 C0.01 9.33 -0.98 9.66 -2 10 C-1.85950482 8.52031676 -1.71245174 7.04125484 -1.5625 5.5625 C-1.48128906 4.73878906 -1.40007812 3.91507813 -1.31640625 3.06640625 C-1 1 -1 1 0 0 Z " fill="#2D2C2A" transform="translate(135,42)"/>
<path d="M0 0 C2.375 0.6875 2.375 0.6875 5 2 C6.3125 4.625 6.3125 4.625 7 7 C6.01 7 5.02 7 4 7 C3.67 9.31 3.34 11.62 3 14 C2.67 14 2.34 14 2 14 C1.93941406 13.24074219 1.87882813 12.48148438 1.81640625 11.69921875 C1.73261719 10.70535156 1.64882812 9.71148437 1.5625 8.6875 C1.48128906 7.70136719 1.40007812 6.71523438 1.31640625 5.69921875 C1.08187441 2.90624401 1.08187441 2.90624401 0 0 Z " fill="#504F4E" transform="translate(131,36)"/>
<path d="M0 0 C1.98 0.99 3.96 1.98 6 3 C6.33 2.01 6.66 1.02 7 0 C7 2.64 7 5.28 7 8 C5.68 8 4.36 8 3 8 C0.82542733 5.12645755 0 3.63563409 0 0 Z " fill="#2E2D2B" transform="translate(80,93)"/>
<path d="M0 0 C0.66 0.33 1.32 0.66 2 1 C1.51917969 1.55171875 1.03835937 2.1034375 0.54296875 2.671875 C-1.23954161 5.36143493 -1.47751409 7.05821418 -1.6875 10.25 C-1.78611328 11.58804688 -1.78611328 11.58804688 -1.88671875 12.953125 C-1.94279297 13.96632813 -1.94279297 13.96632813 -2 15 C-2.66 15 -3.32 15 -4 15 C-5.34899713 7.76446991 -5.34899713 7.76446991 -3.6875 4.125 C-2 2 -2 2 0 0 Z " fill="#434241" transform="translate(44,36)"/>
<path d="M0 0 C3.3 0 6.6 0 10 0 C8 2 8 2 6 2.3125 C5.34 2.539375 4.68 2.76625 4 3 C2.84478498 5.47130918 2.84478498 5.47130918 2 8 C1.01 8.495 1.01 8.495 0 9 C0 6.03 0 3.06 0 0 Z " fill="#DFDFDD" transform="translate(45,41)"/>
<path d="M0 0 C0 3.3 0 6.6 0 10 C-0.33 10 -0.66 10 -1 10 C-1.33 7.36 -1.66 4.72 -2 2 C-2.763125 2.515625 -3.52625 3.03125 -4.3125 3.5625 C-5.199375 4.036875 -6.08625 4.51125 -7 5 C-7.99 4.67 -8.98 4.34 -10 4 C-4.5 0 -4.5 0 0 0 Z " fill="#D9D8D6" transform="translate(121,64)"/>
<path d="M0 0 C1.32 0.33 2.64 0.66 4 1 C4.66 3.31 5.32 5.62 6 8 C3.5625 7.375 3.5625 7.375 1 6 C0.1875 2.875 0.1875 2.875 0 0 Z " fill="#2E2D2B" transform="translate(68,77)"/>
<path d="M0 0 C2.79872437 2.52788007 4.45773019 4.20411134 5 8 C1.83884224 6.63016497 1.0072908 6.0109362 -1 3 C-0.67 2.01 -0.34 1.02 0 0 Z " fill="#464543" transform="translate(73,82)"/>
<path d="M0 0 C2.50037734 2.17424117 3.43628586 3.73045798 4 7 C1.50638429 5.79618552 -0.68143083 4.54571278 -3 3 C-3 2.34 -3 1.68 -3 1 C-2.01 0.67 -1.02 0.34 0 0 Z " fill="#3E3D3B" transform="translate(58,62)"/>
<path d="M0 0 C0.66 1.32 1.32 2.64 2 4 C0.625 6 0.625 6 -1 8 C-1.66 8 -2.32 8 -3 8 C-1.125 2.25 -1.125 2.25 0 0 Z " fill="#3F3E3E" transform="translate(82,61)"/>
<path d="M0 0 C0.99 0.33 1.98 0.66 3 1 C3 1.66 3 2.32 3 3 C-0.46153846 6 -0.46153846 6 -3 6 C-2 4 -1 2 0 0 Z " fill="#C4C3C1" transform="translate(69,83)"/>
<path d="M0 0 C0.99 0.33 1.98 0.66 3 1 C3 2.32 3 3.64 3 5 C1.68 4.67 0.36 4.34 -1 4 C-0.67 2.68 -0.34 1.36 0 0 Z " fill="#5B5A58" transform="translate(62,43)"/>
</svg>
