<?xml version="1.0" encoding="UTF-8"?>
<svg version="1.1" xmlns="http://www.w3.org/2000/svg" width="94" height="87">
<path d="M0 0 C3.60509105 0.0807876 7.20847921 0.19363684 10.8125 0.3125 C11.83666016 0.33505859 12.86082031 0.35761719 13.91601562 0.38085938 C14.89892578 0.41630859 15.88183594 0.45175781 16.89453125 0.48828125 C17.80050049 0.51446533 18.70646973 0.54064941 19.63989258 0.56762695 C22.48146408 1.0882045 23.22025641 1.76939802 25 4 C25.38095093 5.8903656 25.38095093 5.8903656 25.38818359 8.04077148 C25.39764008 8.84848495 25.40709656 9.65619843 25.4168396 10.48838806 C25.41076691 11.35718094 25.40469421 12.22597382 25.3984375 13.12109375 C25.40130768 14.01740005 25.40417786 14.91370636 25.40713501 15.83717346 C25.40917635 17.73268261 25.40364159 19.62821279 25.39111328 21.52368164 C25.37507925 24.42316937 25.39094974 27.32125918 25.41015625 30.22070312 C25.40817346 32.06250308 25.40432905 33.90430216 25.3984375 35.74609375 C25.40754654 37.04624672 25.40754654 37.04624672 25.4168396 38.37266541 C25.37608571 41.86719171 25.30400161 44.36893333 23.77392578 47.54516602 C21.47683814 49.42905609 20.17280837 49.515477 17.21875 49.53125 C15.83236328 49.53898437 15.83236328 49.53898437 14.41796875 49.546875 C13.45503906 49.53140625 12.49210937 49.5159375 11.5 49.5 C10.05560547 49.52320312 10.05560547 49.52320312 8.58203125 49.546875 C7.65777344 49.54171875 6.73351563 49.5365625 5.78125 49.53125 C4.5137793 49.52448242 4.5137793 49.52448242 3.22070312 49.51757812 C1 49 1 49 -0.78051758 47.31933594 C-2.28197313 44.46371478 -2.34431069 42.57680303 -2.29296875 39.359375 C-2.28330078 38.28945313 -2.27363281 37.21953125 -2.26367188 36.1171875 C-2.23853516 35.00601563 -2.21339844 33.89484375 -2.1875 32.75 C-2.17396484 31.62335937 -2.16042969 30.49671875 -2.14648438 29.3359375 C-2.11115645 26.55680736 -2.0618252 23.77864637 -2 21 C-2.66 21 -3.32 21 -4 21 C-3.814375 21.763125 -3.62875 22.52625 -3.4375 23.3125 C-2.68529775 29.65249041 -2.75514642 36.35792806 -6 42 C-6.99 42 -7.98 42 -9 42 C-9.0825 42.598125 -9.165 43.19625 -9.25 43.8125 C-10.25036997 46.73024575 -11.29808749 47.53950675 -14 49 C-17.77762603 49.56262515 -19.48999479 49.29466967 -22.8125 47.375 C-25.51028548 44.44597576 -25.69730174 42.93507737 -26 39 C-26.18172461 37.54093574 -26.36935559 36.08259651 -26.5625 34.625 C-26.706875 33.42875 -26.85125 32.2325 -27 31 C-26.34 31 -25.68 31 -25 31 C-25.350625 30.505 -25.70125 30.01 -26.0625 29.5 C-27.44425568 25.81531817 -27.40491133 22.69355721 -26 19 C-22.2614072 15.8717897 -19.62843926 14.64956381 -14.75 14.875 C-11 16 -11 16 -9.27734375 18.546875 C-7.74285767 22.69514928 -7.65848912 26.00740928 -7.8125 30.375 C-7.83280273 31.47908203 -7.83280273 31.47908203 -7.85351562 32.60546875 C-7.88855131 34.40396743 -7.94234712 36.20208422 -8 38 C-7.93986576 35.41422773 -7.85282878 32.8341319 -7.75 30.25 C-7.72873047 29.15558594 -7.72873047 29.15558594 -7.70703125 28.0390625 C-7.47970196 23.03781817 -6.53465043 21.34752188 -3 18 C-2.37632043 14.90407865 -2.37632043 14.90407865 -2.375 11.5625 C-2.24256554 7.16669462 -1.72264625 4.03191644 0 0 Z M1 4 C1 17.86 1 31.72 1 46 C3.27891033 47.13945516 4.56782104 47.12894214 7.09765625 47.1328125 C8.29938477 47.13474609 8.29938477 47.13474609 9.52539062 47.13671875 C10.36263672 47.13285156 11.19988281 47.12898438 12.0625 47.125 C13.32416992 47.13080078 13.32416992 47.13080078 14.61132812 47.13671875 C18.6242087 47.53603884 18.6242087 47.53603884 22 46 C22.1011692 42.90918535 22.13968558 39.84117445 22.1328125 36.75 C22.13376923 35.82155273 22.13472595 34.89310547 22.13571167 33.93652344 C22.13639355 31.96940035 22.13453872 30.00227504 22.13037109 28.03515625 C22.12502295 25.01296974 22.13031582 21.99093185 22.13671875 18.96875 C22.13605797 17.06249967 22.13477681 15.15624943 22.1328125 13.25 C22.13483673 12.33959961 22.13686096 11.42919922 22.13894653 10.49121094 C22.53891332 6.42336322 22.53891332 6.42336322 21 3 C18.19822034 2.89972578 15.42650888 2.86126711 12.625 2.875 C11.84382813 2.87113281 11.06265625 2.86726563 10.2578125 2.86328125 C6.9234054 2.86899085 4.18393014 2.93868995 1 4 Z M-21.3125 18.75 C-23.27814941 20.83596317 -23.27814941 20.83596317 -22.75 23.25 C-22.5025 23.8275 -22.255 24.405 -22 25 C-20.01432292 24.96744792 -18.02864583 24.93489583 -16.04296875 24.90234375 C-14 25 -14 25 -11 26 C-11.26393501 22.56769552 -11.26393501 22.56769552 -12 19 C-15.68824619 16.54116921 -17.65997761 15.985929 -21.3125 18.75 Z M-21.6875 35.125 C-23.53521368 37.76459098 -23.20946395 39.85804073 -23 43 C-20.65752556 42.12150806 -20.65752556 42.12150806 -20 39.0625 C-19.67 38.051875 -19.34 37.04125 -19 36 C-18.34 35.34 -17.68 34.68 -17 34 C-19.92199528 33.7226499 -19.92199528 33.7226499 -21.6875 35.125 Z M-16 35 C-15.34 35.66 -14.68 36.32 -14 37 C-13.28072705 39.31765729 -12.6090107 41.65095874 -12 44 C-11.67 44 -11.34 44 -11 44 C-10.83322718 40.58343976 -10.83322718 40.58343976 -11 37 C-11.66 36.34 -12.32 35.68 -13 35 C-13.99 35 -14.98 35 -16 35 Z M-18 38 C-18 38.66 -18 39.32 -18 40 C-17.34 40 -16.68 40 -16 40 C-16 39.34 -16 38.68 -16 38 C-16.66 38 -17.32 38 -18 38 Z M-20 43 C-20 43.99 -20 44.98 -20 46 C-16.95086772 47.01111093 -16.95086772 47.01111093 -14 46 C-14.33 45.01 -14.66 44.02 -15 43 C-16.65 43 -18.3 43 -20 43 Z " fill="#6A6868" transform="translate(44,21)"/>
<path d="M0 0 C3.60509105 0.0807876 7.20847921 0.19363684 10.8125 0.3125 C12.34874023 0.34633789 12.34874023 0.34633789 13.91601562 0.38085938 C14.89892578 0.41630859 15.88183594 0.45175781 16.89453125 0.48828125 C17.80050049 0.51446533 18.70646973 0.54064941 19.63989258 0.56762695 C22.48146408 1.0882045 23.22025641 1.76939802 25 4 C25.38095093 5.8903656 25.38095093 5.8903656 25.38818359 8.04077148 C25.39764008 8.84848495 25.40709656 9.65619843 25.4168396 10.48838806 C25.41076691 11.35718094 25.40469421 12.22597382 25.3984375 13.12109375 C25.40130768 14.01740005 25.40417786 14.91370636 25.40713501 15.83717346 C25.40917635 17.73268261 25.40364159 19.62821279 25.39111328 21.52368164 C25.37507925 24.42316937 25.39094974 27.32125918 25.41015625 30.22070312 C25.40817346 32.06250308 25.40432905 33.90430216 25.3984375 35.74609375 C25.40754654 37.04624672 25.40754654 37.04624672 25.4168396 38.37266541 C25.37608392 41.86734562 25.30182186 44.37124962 23.77612305 47.54956055 C21.45923061 49.44160975 20.15653074 49.48963435 17.18359375 49.4609375 C16.25482422 49.45707031 15.32605469 49.45320313 14.36914062 49.44921875 C13.40169922 49.42472656 12.43425781 49.40023437 11.4375 49.375 C10.46619141 49.37371094 9.49488281 49.37242188 8.49414062 49.37109375 C1.28086515 49.28086515 1.28086515 49.28086515 -1 47 C-1.22705078 44.29443359 -1.22705078 44.29443359 -1.1953125 40.8984375 C-1.18886719 39.68671875 -1.18242188 38.475 -1.17578125 37.2265625 C-1.15902344 35.95554688 -1.14226563 34.68453125 -1.125 33.375 C-1.11597656 32.09625 -1.10695312 30.8175 -1.09765625 29.5 C-1.07402303 26.33314833 -1.04107629 23.16666576 -1 20 C-1.99 19.67 -2.98 19.34 -4 19 C-3.855625 18.47664063 -3.71125 17.95328125 -3.5625 17.4140625 C-2.60142737 13.28945913 -2.10253606 9.08794601 -1.5 4.8984375 C-1 2 -1 2 0 0 Z M1 4 C1 17.86 1 31.72 1 46 C3.27891033 47.13945516 4.56782104 47.12894214 7.09765625 47.1328125 C8.29938477 47.13474609 8.29938477 47.13474609 9.52539062 47.13671875 C10.36263672 47.13285156 11.19988281 47.12898438 12.0625 47.125 C13.32416992 47.13080078 13.32416992 47.13080078 14.61132812 47.13671875 C18.6242087 47.53603884 18.6242087 47.53603884 22 46 C22.1011692 42.90918535 22.13968558 39.84117445 22.1328125 36.75 C22.13376923 35.82155273 22.13472595 34.89310547 22.13571167 33.93652344 C22.13639355 31.96940035 22.13453872 30.00227504 22.13037109 28.03515625 C22.12502295 25.01296974 22.13031582 21.99093185 22.13671875 18.96875 C22.13605797 17.06249967 22.13477681 15.15624943 22.1328125 13.25 C22.13483673 12.33959961 22.13686096 11.42919922 22.13894653 10.49121094 C22.53891332 6.42336322 22.53891332 6.42336322 21 3 C18.19822034 2.89972578 15.42650888 2.86126711 12.625 2.875 C11.84382813 2.87113281 11.06265625 2.86726563 10.2578125 2.86328125 C6.9234054 2.86899085 4.18393014 2.93868995 1 4 Z " fill="#5C5A59" transform="translate(44,21)"/>
<path d="M0 0 C3.1946689 4.19300293 3.37466101 7.84841115 3 13 C2.71479595 14.67557379 2.40044304 16.34817245 2 18 C1.01 18 0.02 18 -1 18 C-1.33 18.66 -1.66 19.32 -2 20 C-2 19.34 -2 18.68 -2 18 C-4.31 17.67 -6.62 17.34 -9 17 C-9.33 17.99 -9.66 18.98 -10 20 C-11.65 19.67 -13.3 19.34 -15 19 C-15.33 17.68 -15.66 16.36 -16 15 C-15.34 15 -14.68 15 -14 15 C-14.350625 14.505 -14.70125 14.01 -15.0625 13.5 C-16.44425568 9.81531817 -16.40491133 6.69355721 -15 3 C-9.95291499 -1.22307113 -6.29194582 -1.88758375 0 0 Z M-10.3125 2.75 C-12.27814941 4.83596317 -12.27814941 4.83596317 -11.75 7.25 C-11.5025 7.8275 -11.255 8.405 -11 9 C-9.01432292 8.96744792 -7.02864583 8.93489583 -5.04296875 8.90234375 C-3 9 -3 9 0 10 C-0.26393501 6.56769552 -0.26393501 6.56769552 -1 3 C-4.68824619 0.54116921 -6.65997761 -0.014071 -10.3125 2.75 Z " fill="#3B3A3A" transform="translate(33,37)"/>
<path d="M0 0 C3.62532066 0.13847638 7.25015904 0.28702643 10.875 0.4375 C12.42380859 0.49647461 12.42380859 0.49647461 14.00390625 0.55664062 C14.99003906 0.59853516 15.97617187 0.64042969 16.9921875 0.68359375 C17.90339355 0.72025146 18.81459961 0.75690918 19.75341797 0.79467773 C22 1 22 1 24 2 C23.67 16.52 23.34 31.04 23 46 C22.67 46 22.34 46 22 46 C21.20432681 31.97625999 20.90443796 18.04762035 21 4 C14.4 4 7.8 4 1 4 C1.33 5.98 1.66 7.96 2 10 C2.64163469 21.60603918 1.55427291 33.40154461 1 45 C0.67 45 0.34 45 0 45 C-0.16737766 38.91291842 -0.32796157 32.82571052 -0.48217773 26.73828125 C-0.5356348 24.66629175 -0.59096697 22.59434976 -0.64819336 20.52246094 C-0.73000096 17.54893237 -0.80512222 14.57529961 -0.87890625 11.6015625 C-0.90594131 10.67131256 -0.93297638 9.74106262 -0.96083069 8.78262329 C-0.98092697 7.92188202 -1.00102325 7.06114075 -1.02172852 6.17431641 C-1.04171402 5.41486725 -1.06169952 4.65541809 -1.08229065 3.87295532 C-1 2 -1 2 0 0 Z " fill="#939290" transform="translate(44,21)"/>
<path d="M0 0 C2 2 2 2 2.3125 4.9375 C2 8 2 8 0.88671875 9.66796875 C-1.89040029 11.62862629 -4.13911834 11.39770866 -7.5 11.375 C-9.21703125 11.38660156 -9.21703125 11.38660156 -10.96875 11.3984375 C-14 11 -14 11 -15.92578125 9.70703125 C-17.73020566 6.83963682 -16.65759111 4.16839353 -16 1 C-10.62392691 -1.40508533 -5.66412791 -1.26322277 0 0 Z M-14 3 C-14.04063832 4.66617115 -14.042721 6.33388095 -14 8 C-11.52224905 9.23887548 -9.76346293 9.16741669 -7 9.1875 C-5.6696875 9.20876953 -5.6696875 9.20876953 -4.3125 9.23046875 C-1.80480016 9.22713126 -1.80480016 9.22713126 0 7 C-0.40528901 4.21762345 -0.40528901 4.21762345 -2 2 C-3.83115883 1.90148829 -5.66619933 1.87027371 -7.5 1.875 C-9.00046875 1.87113281 -9.00046875 1.87113281 -10.53125 1.8671875 C-12.94399622 1.72129618 -12.94399622 1.72129618 -14 3 Z " fill="#676565" transform="translate(63,47)"/>
<path d="M0 0 C4.95 0 9.9 0 15 0 C15.33 1.65 15.66 3.3 16 5 C12.60014874 7.10275161 10.3054 7.12715391 6.375 6.6875 C5.41335937 6.58824219 4.45171875 6.48898438 3.4609375 6.38671875 C1 6 1 6 -1 5 C-0.67 3.35 -0.34 1.7 0 0 Z " fill="#747272" transform="translate(48,59)"/>
<path d="M0 0 C3.14045679 4.12184953 3.58751828 7.90817495 3 13 C2.01 13.66 1.02 14.32 0 15 C0.33 13.68 0.66 12.36 1 11 C0.34 10.67 -0.32 10.34 -1 10 C-1 7.69 -1 5.38 -1 3 C-5.65117418 1.793413 -5.65117418 1.793413 -9.9375 3.25 C-11.25948907 5.08617835 -11.25948907 5.08617835 -11 8 C-10.34 8.66 -9.68 9.32 -9 10 C-10.32 10.33 -11.64 10.66 -13 11 C-13 11.66 -13 12.32 -13 13 C-15 12 -15 12 -15.6875 10.25 C-16.09112483 7.34390123 -16.10209082 5.75522705 -15 3 C-9.78584184 -1.04363286 -6.36155871 -1.90846761 0 0 Z " fill="#81807F" transform="translate(33,37)"/>
<path d="M0 0 C1.98 0.495 1.98 0.495 4 1 C4 9.25 4 17.5 4 26 C3.67 26 3.34 26 3 26 C3 18.08 3 10.16 3 2 C2.34 2 1.68 2 1 2 C1.2784375 3.1446875 1.2784375 3.1446875 1.5625 4.3125 C2.15455682 9.30269322 1.57528099 14.02603203 1 19 C0.67 19 0.34 19 0 19 C-0.1938211 16.02111874 -0.38035102 13.04209754 -0.5625 10.0625 C-0.61857422 9.21236328 -0.67464844 8.36222656 -0.73242188 7.48632812 C-0.80493164 6.27299805 -0.80493164 6.27299805 -0.87890625 5.03515625 C-0.9260376 4.2862915 -0.97316895 3.53742676 -1.02172852 2.76586914 C-1 1 -1 1 0 0 Z " fill="#BAB8B8" transform="translate(39,40)"/>
<path d="M0 0 C0.66 0 1.32 0 2 0 C1.67 14.52 1.34 29.04 1 44 C0.67 44 0.34 44 0 44 C-0.63466783 32.91597976 -1.10297188 21.85400597 -1.125 10.75 C-1.12951172 9.79206543 -1.13402344 8.83413086 -1.13867188 7.84716797 C-1.13673828 6.96432129 -1.13480469 6.08147461 -1.1328125 5.171875 C-1.13168457 4.3890918 -1.13055664 3.60630859 -1.12939453 2.79980469 C-1 1 -1 1 0 0 Z " fill="#CCCBCA" transform="translate(66,23)"/>
<path d="M0 0 C3.3 0 6.6 0 10 0 C10 0.99 10 1.98 10 3 C11.32 3.33 12.64 3.66 14 4 C9.05 4 4.1 4 -1 4 C-0.67 2.68 -0.34 1.36 0 0 Z " fill="#2F2D2E" transform="translate(48,60)"/>
<path d="M0 0 C2.31 0.66 4.62 1.32 7 2 C6.125 8.875 6.125 8.875 5 10 C3.33382885 10.04063832 1.66611905 10.042721 0 10 C0.020625 9.030625 0.04125 8.06125 0.0625 7.0625 C0.35618499 4.12534105 0.35618499 4.12534105 -1 3 C-0.67 2.01 -0.34 1.02 0 0 Z M2 6 C2 6.66 2 7.32 2 8 C2.66 8 3.32 8 4 8 C4 7.34 4 6.68 4 6 C3.34 6 2.68 6 2 6 Z " fill="#666761" transform="translate(24,53)"/>
<path d="M0 0 C1.98 0.495 1.98 0.495 4 1 C4.33 3.31 4.66 5.62 5 8 C4.01 8 3.02 8 2 8 C1.67 8.66 1.34 9.32 1 10 C1 9.34 1 8.68 1 8 C0.34 8 -0.32 8 -1 8 C-1.125 2.25 -1.125 2.25 0 0 Z " fill="#2E2D2E" transform="translate(30,47)"/>
<path d="M0 0 C-0.99 0.66 -1.98 1.32 -3 2 C-3.72965366 4.56282742 -3.72965366 4.56282742 -4 7 C-3.34 7.33 -2.68 7.66 -2 8 C-2.99 8.33 -3.98 8.66 -5 9 C-5.66 8.34 -6.32 7.68 -7 7 C-6.75 3.4375 -6.75 3.4375 -6 0 C-3.50907189 -1.24546405 -2.58919267 -0.7767578 0 0 Z " fill="#787777" transform="translate(53,48)"/>
<path d="M0 0 C0.33 0 0.66 0 1 0 C1.625 2.8125 1.625 2.8125 2 6 C1.01 7.485 1.01 7.485 0 9 C-0.33 8.34 -0.66 7.68 -1 7 C-3.52733235 6.34444881 -3.52733235 6.34444881 -6 6 C-6.33 6.99 -6.66 7.98 -7 9 C-7 8.34 -7 7.68 -7 7 C-7.66 6.67 -8.32 6.34 -9 6 C-8.34 4.35 -7.68 2.7 -7 1 C-6.67 2.32 -6.34 3.64 -6 5 C-4.35 4.67 -2.7 4.34 -1 4 C-0.67 2.68 -0.34 1.36 0 0 Z " fill="#9B9A9A" transform="translate(30,58)"/>
<path d="M0 0 C0.66 0 1.32 0 2 0 C2.28875 0.78375 2.5775 1.5675 2.875 2.375 C3.84912254 5.09671632 3.84912254 5.09671632 6 7 C4.68 7.33 3.36 7.66 2 8 C2 8.66 2 9.32 2 10 C0 9 0 9 -0.6875 7.25 C-1.05449975 4.60760177 -0.64331769 2.57327078 0 0 Z " fill="#989796" transform="translate(18,40)"/>
<path d="M0 0 C0 0.66 0 1.32 0 2 C-1.7015625 2.433125 -1.7015625 2.433125 -3.4375 2.875 C-4.613125 3.24625 -5.78875 3.6175 -7 4 C-7.33 4.66 -7.66 5.32 -8 6 C-8.66 6 -9.32 6 -10 6 C-9.75 4.125 -9.75 4.125 -9 2 C-6.04454879 -0.11103658 -3.56144099 -0.19785783 0 0 Z " fill="#5E5D5C" transform="translate(30,36)"/>
<path d="M0 0 C0.99 0.33 1.98 0.66 3 1 C2.34 3.97 1.68 6.94 1 10 C-1.56687367 6.1496895 -0.83288724 4.41430237 0 0 Z " fill="#6F6F6F" transform="translate(19,56)"/>
<path d="M0 0 C1.98 0.495 1.98 0.495 4 1 C3.34 2.65 2.68 4.3 2 6 C1.01 5.34 0.02 4.68 -1 4 C-0.67 2.68 -0.34 1.36 0 0 Z " fill="#232222" transform="translate(30,47)"/>
<path d="" fill="#FFFFFF" transform="translate(0,0)"/>
<path d="" fill="#FFFFFF" transform="translate(0,0)"/>
<path d="" fill="#FFFFFF" transform="translate(0,0)"/>
<path d="" fill="#FFFFFF" transform="translate(0,0)"/>
<path d="" fill="#FFFFFF" transform="translate(0,0)"/>
<path d="" fill="#FFFFFF" transform="translate(0,0)"/>
<path d="" fill="#FFFFFF" transform="translate(0,0)"/>
<path d="" fill="#FFFFFF" transform="translate(0,0)"/>
<path d="" fill="#FFFFFF" transform="translate(0,0)"/>
<path d="" fill="#FFFFFF" transform="translate(0,0)"/>
<path d="" fill="#FEFFFF" transform="translate(0,0)"/>
<path d="" fill="#FFFFFF" transform="translate(0,0)"/>
<path d="" fill="#FFFFFF" transform="translate(0,0)"/>
<path d="" fill="#FFFFFF" transform="translate(0,0)"/>
<path d="" fill="#FFFFFF" transform="translate(0,0)"/>
<path d="" fill="#FFFFFF" transform="translate(0,0)"/>
<path d="" fill="#FFFFFF" transform="translate(0,0)"/>
<path d="" fill="#FFFFFF" transform="translate(0,0)"/>
<path d="" fill="#FFFFFF" transform="translate(0,0)"/>
<path d="" fill="#FFFFFF" transform="translate(0,0)"/>
<path d="" fill="#FFFFFF" transform="translate(0,0)"/>
<path d="" fill="#FFFFFF" transform="translate(0,0)"/>
<path d="" fill="#FFFFFF" transform="translate(0,0)"/>
<path d="" fill="#FFFFFF" transform="translate(0,0)"/>
<path d="" fill="#FFFFFF" transform="translate(0,0)"/>
<path d="" fill="#FFFFFF" transform="translate(0,0)"/>
<path d="" fill="#FFFFFF" transform="translate(0,0)"/>
<path d="" fill="#FFFFFF" transform="translate(0,0)"/>
<path d="" fill="#FFFFFF" transform="translate(0,0)"/>
<path d="" fill="#FEFFFF" transform="translate(0,0)"/>
<path d="" fill="#FFFFFF" transform="translate(0,0)"/>
<path d="" fill="#FFFFFF" transform="translate(0,0)"/>
<path d="" fill="#FFFFFF" transform="translate(0,0)"/>
<path d="" fill="#FFFFFF" transform="translate(0,0)"/>
<path d="" fill="#FFFFFF" transform="translate(0,0)"/>
<path d="" fill="#00FFFF" transform="translate(0,0)"/>
<path d="" fill="#FEFFFF" transform="translate(0,0)"/>
<path d="" fill="#FFFFFF" transform="translate(0,0)"/>
<path d="" fill="#FFFFFF" transform="translate(0,0)"/>
<path d="" fill="#FFFFFF" transform="translate(0,0)"/>
<path d="" fill="#FFFFFF" transform="translate(0,0)"/>
<path d="" fill="#FFFFFF" transform="translate(0,0)"/>
<path d="" fill="#FFFFFF" transform="translate(0,0)"/>
<path d="" fill="#FFFFFF" transform="translate(0,0)"/>
<path d="" fill="#FFFFFF" transform="translate(0,0)"/>
<path d="" fill="#FFFFFF" transform="translate(0,0)"/>
<path d="" fill="#FFFFFF" transform="translate(0,0)"/>
<path d="" fill="#FFFFFF" transform="translate(0,0)"/>
<path d="" fill="#FFFFFF" transform="translate(0,0)"/>
<path d="" fill="#FEFFFF" transform="translate(0,0)"/>
<path d="" fill="#FFFFFF" transform="translate(0,0)"/>
<path d="" fill="#FFFFFF" transform="translate(0,0)"/>
<path d="" fill="#FFFFFF" transform="translate(0,0)"/>
<path d="" fill="#FFFFFF" transform="translate(0,0)"/>
<path d="" fill="#FFFFFF" transform="translate(0,0)"/>
<path d="" fill="#FFFFFF" transform="translate(0,0)"/>
<path d="" fill="#FFFFFF" transform="translate(0,0)"/>
<path d="" fill="#FFFFFF" transform="translate(0,0)"/>
<path d="" fill="#FFFFFF" transform="translate(0,0)"/>
<path d="" fill="#FFFFFF" transform="translate(0,0)"/>
<path d="" fill="#FFFFFF" transform="translate(0,0)"/>
<path d="" fill="#FFFFFF" transform="translate(0,0)"/>
<path d="" fill="#FFFFFF" transform="translate(0,0)"/>
<path d="" fill="#FFFFFF" transform="translate(0,0)"/>
<path d="" fill="#FFFFFF" transform="translate(0,0)"/>
<path d="" fill="#FFFFFF" transform="translate(0,0)"/>
<path d="" fill="#FFFFFF" transform="translate(0,0)"/>
<path d="" fill="#FFFFFF" transform="translate(0,0)"/>
<path d="" fill="#FFFFFF" transform="translate(0,0)"/>
<path d="" fill="#FFFFFF" transform="translate(0,0)"/>
<path d="" fill="#FFFFFF" transform="translate(0,0)"/>
<path d="" fill="#00FFFF" transform="translate(0,0)"/>
<path d="" fill="#FFFFFF" transform="translate(0,0)"/>
<path d="" fill="#00FFFF" transform="translate(0,0)"/>
<path d="" fill="#FFFFFF" transform="translate(0,0)"/>
<path d="" fill="#FFFFFF" transform="translate(0,0)"/>
<path d="" fill="#FFFFFF" transform="translate(0,0)"/>
<path d="" fill="#FFFFFF" transform="translate(0,0)"/>
<path d="" fill="#00FFFF" transform="translate(0,0)"/>
<path d="" fill="#FFFFFF" transform="translate(0,0)"/>
<path d="" fill="#FFFFFF" transform="translate(0,0)"/>
</svg>
